<?xml version="1.0" encoding="UTF-8" standalone="no"?>
<!DOCTYPE svg PUBLIC "-//W3C//DTD SVG 1.1//EN" "http://www.w3.org/Graphics/SVG/1.1/DTD/svg11.dtd">
<svg width="100%" height="100%" viewBox="0 0 162 117" version="1.1" xmlns="http://www.w3.org/2000/svg" xmlns:xlink="http://www.w3.org/1999/xlink" xml:space="preserve" xmlns:serif="http://www.serif.com/" style="fill-rule:evenodd;clip-rule:evenodd;stroke-linejoin:round;stroke-miterlimit:2;">
    <g transform="matrix(1,0,0,1,-636.069,-266.374)">
        <g transform="matrix(0.591808,0,0,0.459366,524.159,445.164)">
            <g transform="matrix(2.33826,0,0,3.01242,-237.46,-607.768)">
                <g>
                    <path d="M268.595,88.887C268.595,88.887 276.838,88.524 285.188,88.877C295.329,89.304 298.415,102.667 298.415,102.667L288.415,102.594C288.415,102.594 288.626,93.584 285.437,91.418C282.156,89.188 268.595,88.887 268.595,88.887Z" style="fill:rgb(178,23,0);"/>
                    <path d="M274.894,98.431C274.894,98.431 277.689,99.053 279.771,100.683C281.073,101.703 282.124,103.197 282.124,103.197L279.56,105.2C279.56,105.2 278.994,102.907 278.226,101.725C277.073,99.949 274.894,98.431 274.894,98.431Z" style="fill:rgb(178,23,0);"/>
                    <rect x="288.635" y="111.376" width="10.247" height="45.514" style="fill:rgb(178,23,0);"/>
                    <path d="M235.779,106.703C235.779,106.703 232.814,108.601 230.482,112.282C227.895,116.366 225.845,122.861 228.455,129.757C232.348,140.046 241.144,142.469 241.144,142.469L243,140.543C243,140.543 234.489,139.13 230.328,129.188C224.599,115.499 235.779,106.703 235.779,106.703Z" style="fill:rgb(178,23,0);"/>
                    <path d="M236.879,108.659C236.879,108.659 226.176,118.335 231.868,129.384C235.86,137.132 244.129,139.364 244.129,139.364L251.116,132.367C251.116,132.367 244.58,132.219 238.607,123.646C234.056,117.116 236.879,108.659 236.879,108.659Z" style="fill:rgb(178,23,0);"/>
                </g>
                <g>
                    <g transform="matrix(1,0,0,1.01324,-5.68434e-14,-1.69156)">
                        <rect x="182.426" y="89.788" width="10.428" height="66.722" style="fill:rgb(224,153,1);"/>
                    </g>
                    <path d="M211.835,132.217C212.163,133.465 211.893,134.794 211.106,135.815C210.318,136.837 209.101,137.435 207.811,137.435L202.976,137.435C198.87,137.435 195.542,134.108 195.54,130.003L195.54,130.002C195.539,128.705 196.054,127.46 196.972,126.542C197.889,125.625 199.133,125.109 200.431,125.109L202.617,125.109C206.948,125.109 210.733,128.028 211.834,132.216C211.834,132.217 211.835,132.217 211.835,132.217Z" style="fill:rgb(224,153,1);"/>
                    <path d="M219.382,98.703C221.092,96.273 222.821,94.061 222.141,92.372C221.46,90.682 219.738,89.876 217.512,89.69C216.426,89.599 213.543,89.654 212.583,89.668C206.986,89.743 204.76,91.846 201.599,96.464C200.732,97.732 199.286,99.931 199.973,101.306C200.66,102.68 201.906,103.611 203.443,103.611C205.634,103.611 207.905,103.618 209.92,103.611C217.155,103.585 217.789,100.966 219.382,98.703Z" style="fill:rgb(224,153,1);"/>
                    <g transform="matrix(1,0,0,-1,0,246.21)">
                        <path d="M219.382,98.703C221.092,96.273 222.821,94.061 222.141,92.372C221.46,90.682 219.738,89.876 217.512,89.69C216.426,89.599 213.543,89.654 212.583,89.668C206.986,89.743 204.76,91.846 201.599,96.464C200.732,97.732 199.286,99.931 199.973,101.306C200.66,102.68 201.906,103.611 203.443,103.611C205.634,103.611 207.905,103.618 209.92,103.611C217.155,103.585 217.789,100.966 219.382,98.703Z" style="fill:rgb(224,153,1);"/>
                    </g>
                    <path d="M211.835,114.544C212.163,113.296 211.893,111.967 211.106,110.946C210.318,109.924 208.965,109.162 207.675,109.162C206.136,109.162 204.004,108.981 202.402,109.094C198.415,109.375 195.542,112.653 195.54,116.759C195.539,118.056 196.054,119.301 196.972,120.219C197.889,121.137 199.133,121.652 200.431,121.652L202.617,121.652C206.948,121.652 210.733,118.733 211.834,114.545L211.835,114.544Z" style="fill:rgb(224,153,1);"/>
                    <path d="M247.919,91.16C265.509,91.16 279.79,105.441 279.79,123.031C279.79,140.622 265.509,154.903 247.919,154.903C230.328,154.903 216.047,140.622 216.047,123.031C216.047,105.441 230.328,91.16 247.919,91.16ZM247.919,101.219C259.957,101.219 269.731,110.993 269.731,123.031C269.731,135.07 259.957,144.844 247.919,144.844C235.88,144.844 226.106,135.07 226.106,123.031C226.106,110.993 235.88,101.219 247.919,101.219Z" style="fill:rgb(224,153,1);"/>
                    <path d="M235.446,89.436C235.446,89.436 239.22,86.076 241.336,80.278C241.767,79.099 242.307,80.606 248.447,80.683C253.024,80.74 254.274,78.66 255.005,80.406C256.581,84.167 259.857,88.541 261.489,89.52C261.414,88.059 261.416,81.809 260.638,79.142C259.822,76.343 258.964,74.257 257.015,73.504C255.607,72.96 251.772,72.522 248.534,72.554C246.101,72.579 241.968,72.696 240.31,73.5C238.325,74.462 236.711,75.551 235.939,79.196C235.342,82.019 235.446,89.436 235.446,89.436Z" style="fill:rgb(224,153,1);"/>
                </g>
            </g>
        </g>
    </g>
</svg>
