<?xml version="1.0" encoding="UTF-8" standalone="no"?>
<!DOCTYPE svg PUBLIC "-//W3C//DTD SVG 1.1//EN" "http://www.w3.org/Graphics/SVG/1.1/DTD/svg11.dtd">
<svg width="100%" height="100%" viewBox="0 0 95 95" version="1.1" xmlns="http://www.w3.org/2000/svg" xmlns:xlink="http://www.w3.org/1999/xlink" xml:space="preserve" xmlns:serif="http://www.serif.com/" style="fill-rule:evenodd;clip-rule:evenodd;stroke-linejoin:round;stroke-miterlimit:2;">
    <g transform="matrix(1,0,0,1,-2691.68,-1222.9)">
        <g transform="matrix(0.219988,0,0,0.170756,2651.63,987.784)">
            <g transform="matrix(1.6676,0,0,2.14839,-1217.34,-4029.76)">
                <circle cx="967.401" cy="2644.84" r="128.239" style="fill:rgb(177,24,0);"/>
                <clipPath id="_clip1">
                    <circle cx="967.401" cy="2644.84" r="128.239"/>
                </clipPath>
                <g clip-path="url(#_clip1)">
                    <g>
                        <g transform="matrix(1.10569,0,0,4.14334,-1073.83,-6562.53)">
                            <rect x="1714.23" y="2186.07" width="263.812" height="69.811" style="fill:rgb(0,155,58);"/>
                        </g>
                        <g transform="matrix(1.62282,0,0,1.64619,-3279.6,472.206)">
                            <path d="M2617.13,1273.54L2690.78,1320.22L2617.13,1366.91L2543.49,1320.22L2617.13,1273.54Z" style="fill:rgb(254,222,0);"/>
                        </g>
                        <g transform="matrix(1.27462,0,0,1.27462,-2358.81,974.474)">
                            <circle cx="2609.97" cy="1310.74" r="39.574" style="fill:rgb(0,39,118);"/>
                            <clipPath id="_clip2">
                                <circle cx="2609.97" cy="1310.74" r="39.574"/>
                            </clipPath>
                            <g clip-path="url(#_clip2)">
                                <g transform="matrix(0.784545,0,0,0.784545,1850.59,-764.519)">
                                    <g transform="matrix(1.27462,0,0,1.27462,-2357.77,974.39)">
                                        <path d="M2568.71,1295.26C2568.71,1295.26 2587.66,1290.89 2611.36,1296.91C2634.61,1302.82 2650.66,1318.14 2650.66,1318.14L2649.46,1325.38C2649.46,1325.38 2634.95,1308.54 2608.12,1302.46C2584.34,1297.07 2566.59,1301.83 2566.59,1301.83L2568.71,1295.26Z" style="fill:white;"/>
                                    </g>
                                    <g transform="matrix(2.72585,0.0164488,-0.145476,2.72507,-5887.82,-947.022)">
                                        <g transform="matrix(0.996946,-0.0780896,0.0780896,0.996946,-93.4836,204.464)">
                                            <text x="2567.58px" y="1297.54px" style="font-family:'Arial-BoldMT', 'Arial', sans-serif;font-weight:700;font-size:3px;fill:rgb(17,136,6);">O</text>
                                        </g>
                                        <g transform="matrix(0.999233,-0.0391549,0.0391549,0.999233,-48.8271,101.619)">
                                            <text x="2569.91px" y="1297.36px" style="font-family:'Arial-BoldMT', 'Arial', sans-serif;font-weight:700;font-size:3px;fill:rgb(17,136,6);">R</text>
                                        </g>
                                        <g transform="matrix(0.999978,-0.00667521,0.00667521,0.999978,-8.60224,17.1981)">
                                            <text x="2572.08px" y="1297.27px" style="font-family:'Arial-BoldMT', 'Arial', sans-serif;font-weight:700;font-size:3px;fill:rgb(17,136,6);">D</text>
                                        </g>
                                        <g transform="matrix(0.999635,0.0270075,-0.0270075,0.999635,35.9746,-69.0507)">
                                            <text x="2574.24px" y="1297.25px" style="font-family:'Arial-BoldMT', 'Arial', sans-serif;font-weight:700;font-size:3px;fill:rgb(17,136,6);">E</text>
                                        </g>
                                        <g transform="matrix(0.997795,0.0663722,-0.0663722,0.997795,91.7855,-168.13)">
                                            <text x="2576.24px" y="1297.3px" style="font-family:'Arial-BoldMT', 'Arial', sans-serif;font-weight:700;font-size:3px;fill:rgb(17,136,6);">M</text>
                                        </g>
                                        <g transform="matrix(0.988397,0.151891,-0.151891,0.988397,227.041,-376.883)">
                                            <text x="2580.39px" y="1297.65px" style="font-family:'Arial-BoldMT', 'Arial', sans-serif;font-weight:700;font-size:3px;fill:rgb(17,136,6);">E</text>
                                        </g>
                                        <g transform="matrix(0.960113,0.279612,-0.279612,0.960113,466.142,-670.882)">
                                            <text x="2584.55px" y="1298.41px" style="font-family:'Arial-BoldMT', 'Arial', sans-serif;font-weight:700;font-size:3px;fill:rgb(17,136,6);">P</text>
                                        </g>
                                        <g transform="matrix(0.94706,0.321057,-0.321057,0.94706,553.972,-761.638)">
                                            <text x="2586.47px" y="1298.97px" style="font-family:'Arial-BoldMT', 'Arial', sans-serif;font-weight:700;font-size:3px;fill:rgb(17,136,6);">R</text>
                                        </g>
                                        <g transform="matrix(0.93198,0.362509,-0.362509,0.93198,647.208,-849.96)">
                                            <text x="2588.53px" y="1299.66px" style="font-family:'Arial-BoldMT', 'Arial', sans-serif;font-weight:700;font-size:3px;fill:rgb(17,136,6);">O</text>
                                        </g>
                                        <g transform="matrix(0.913234,0.407436,-0.407436,0.913234,754.658,-942.704)">
                                            <text x="2590.7px" y="1300.51px" style="font-family:'Arial-BoldMT', 'Arial', sans-serif;font-weight:700;font-size:3px;fill:rgb(17,136,6);">G</text>
                                        </g>
                                        <g transform="matrix(0.891029,0.453946,-0.453946,0.891029,873.332,-1035.18)">
                                            <text x="2592.83px" y="1301.45px" style="font-family:'Arial-BoldMT', 'Arial', sans-serif;font-weight:700;font-size:3px;fill:rgb(17,136,6);">R</text>
                                        </g>
                                        <g transform="matrix(0.86941,0.494091,-0.494091,0.86941,982.372,-1111.96)">
                                            <text x="2594.76px" y="1302.44px" style="font-family:'Arial-BoldMT', 'Arial', sans-serif;font-weight:700;font-size:3px;fill:rgb(17,136,6);">E</text>
                                        </g>
                                        <g transform="matrix(0.845909,0.533327,-0.533327,0.845909,1095.25,-1183.94)">
                                            <text x="2596.5px" y="1303.43px" style="font-family:'Arial-BoldMT', 'Arial', sans-serif;font-weight:700;font-size:3px;fill:rgb(17,136,6);">S</text>
                                        </g>
                                        <g transform="matrix(0.818412,0.574632,-0.574632,0.818412,1221.41,-1256.13)">
                                            <text x="2598.2px" y="1304.5px" style="font-family:'Arial-BoldMT', 'Arial', sans-serif;font-weight:700;font-size:3px;fill:rgb(17,136,6);">S</text>
                                        </g>
                                        <g transform="matrix(0.782957,0.622076,-0.622076,0.782957,1376.48,-1333.92)">
                                            <text x="2599.84px" y="1305.64px" style="font-family:'Arial-BoldMT', 'Arial', sans-serif;font-weight:700;font-size:3px;fill:rgb(17,136,6);">O</text>
                                        </g>
                                    </g>
                                </g>
                            </g>
                        </g>
                        <g>
                            <g transform="matrix(0.903508,0,0,0.948003,-1402.74,1398.87)">
                                <path d="M2577.26,1302.84L2577.74,1304.34L2579.32,1304.34L2578.05,1305.27L2578.53,1306.77L2577.26,1305.84L2575.98,1306.77L2576.47,1305.27L2575.19,1304.34L2576.77,1304.34L2577.26,1302.84Z" style="fill:white;"/>
                            </g>
                            <g transform="matrix(0.813741,0,0,0.900108,-1166.75,1482.59)">
                                <path d="M2577.26,1302.84L2577.74,1304.34L2579.32,1304.34L2578.05,1305.27L2578.53,1306.77L2577.26,1305.84L2575.98,1306.77L2576.47,1305.27L2575.19,1304.34L2576.77,1304.34L2577.26,1302.84Z" style="fill:white;"/>
                            </g>
                            <g transform="matrix(0.697937,0,0,0.659756,-863.486,1793.11)">
                                <path d="M2577.26,1302.84L2577.74,1304.34L2579.32,1304.34L2578.05,1305.27L2578.53,1306.77L2577.26,1305.84L2575.98,1306.77L2576.47,1305.27L2575.19,1304.34L2576.77,1304.34L2577.26,1302.84Z" style="fill:white;"/>
                            </g>
                            <g transform="matrix(0.779543,0,0,0.751175,-1061.1,1666.67)">
                                <path d="M2577.26,1302.84L2577.74,1304.34L2579.32,1304.34L2578.05,1305.27L2578.53,1306.77L2577.26,1305.84L2575.98,1306.77L2576.47,1305.27L2575.19,1304.34L2576.77,1304.34L2577.26,1302.84Z" style="fill:white;"/>
                            </g>
                            <g transform="matrix(0.763611,0,0,0.749232,-1026.73,1684.29)">
                                <path d="M2577.26,1302.84L2577.74,1304.34L2579.32,1304.34L2578.05,1305.27L2578.53,1306.77L2577.26,1305.84L2575.98,1306.77L2576.47,1305.27L2575.19,1304.34L2576.77,1304.34L2577.26,1302.84Z" style="fill:white;"/>
                            </g>
                            <g transform="matrix(0.724362,0,0,0.771577,-927.384,1660.56)">
                                <path d="M2577.26,1302.84L2577.74,1304.34L2579.32,1304.34L2578.05,1305.27L2578.53,1306.77L2577.26,1305.84L2575.98,1306.77L2576.47,1305.27L2575.19,1304.34L2576.77,1304.34L2577.26,1302.84Z" style="fill:white;"/>
                            </g>
                            <g transform="matrix(0.962187,0,0,0.96277,-1532.7,1415.21)">
                                <path d="M2577.26,1302.84L2577.74,1304.34L2579.32,1304.34L2578.05,1305.27L2578.53,1306.77L2577.26,1305.84L2575.98,1306.77L2576.47,1305.27L2575.19,1304.34L2576.77,1304.34L2577.26,1302.84Z" style="fill:white;"/>
                            </g>
                            <g transform="matrix(0.823176,0,0,0.795509,-1153.98,1630.01)">
                                <path d="M2577.26,1302.84L2577.74,1304.34L2579.32,1304.34L2578.05,1305.27L2578.53,1306.77L2577.26,1305.84L2575.98,1306.77L2576.47,1305.27L2575.19,1304.34L2576.77,1304.34L2577.26,1302.84Z" style="fill:white;"/>
                            </g>
                            <g transform="matrix(0.653622,0,0,0.746438,-722.27,1683.77)">
                                <path d="M2577.26,1302.84L2577.74,1304.34L2579.32,1304.34L2578.05,1305.27L2578.53,1306.77L2577.26,1305.84L2575.98,1306.77L2576.47,1305.27L2575.19,1304.34L2576.77,1304.34L2577.26,1302.84Z" style="fill:white;"/>
                            </g>
                            <g transform="matrix(0.694131,0,0,0.713655,-824.252,1729.9)">
                                <path d="M2577.26,1302.84L2577.74,1304.34L2579.32,1304.34L2578.05,1305.27L2578.53,1306.77L2577.26,1305.84L2575.98,1306.77L2576.47,1305.27L2575.19,1304.34L2576.77,1304.34L2577.26,1302.84Z" style="fill:white;"/>
                            </g>
                            <g transform="matrix(0.884984,0,0,0.872978,-1307.39,1518.35)">
                                <path d="M2577.26,1302.84L2577.74,1304.34L2579.32,1304.34L2578.05,1305.27L2578.53,1306.77L2577.26,1305.84L2575.98,1306.77L2576.47,1305.27L2575.19,1304.34L2576.77,1304.34L2577.26,1302.84Z" style="fill:white;"/>
                            </g>
                            <g transform="matrix(0.876214,0,0,0.918916,-1290.96,1454.35)">
                                <path d="M2577.26,1302.84L2577.74,1304.34L2579.32,1304.34L2578.05,1305.27L2578.53,1306.77L2577.26,1305.84L2575.98,1306.77L2576.47,1305.27L2575.19,1304.34L2576.77,1304.34L2577.26,1302.84Z" style="fill:white;"/>
                            </g>
                            <g transform="matrix(0.739234,0,0,0.774523,-923.728,1631.89)">
                                <path d="M2577.26,1302.84L2577.74,1304.34L2579.32,1304.34L2578.05,1305.27L2578.53,1306.77L2577.26,1305.84L2575.98,1306.77L2576.47,1305.27L2575.19,1304.34L2576.77,1304.34L2577.26,1302.84Z" style="fill:white;"/>
                            </g>
                            <g transform="matrix(0.831946,0,0,0.774941,-1161.01,1617.47)">
                                <path d="M2577.26,1302.84L2577.74,1304.34L2579.32,1304.34L2578.05,1305.27L2578.53,1306.77L2577.26,1305.84L2575.98,1306.77L2576.47,1305.27L2575.19,1304.34L2576.77,1304.34L2577.26,1302.84Z" style="fill:white;"/>
                            </g>
                            <g transform="matrix(0.807724,0,0,0.752389,-1102.97,1691.67)">
                                <path d="M2577.26,1302.84L2577.74,1304.34L2579.32,1304.34L2578.05,1305.27L2578.53,1306.77L2577.26,1305.84L2575.98,1306.77L2576.47,1305.27L2575.19,1304.34L2576.77,1304.34L2577.26,1302.84Z" style="fill:white;"/>
                            </g>
                            <g transform="matrix(0.707913,0,0,0.618438,-856.549,1877.5)">
                                <path d="M2577.26,1302.84L2577.74,1304.34L2579.32,1304.34L2578.05,1305.27L2578.53,1306.77L2577.26,1305.84L2575.98,1306.77L2576.47,1305.27L2575.19,1304.34L2576.77,1304.34L2577.26,1302.84Z" style="fill:white;"/>
                            </g>
                            <g transform="matrix(0.702066,0,0,0.756252,-822.722,1687.95)">
                                <path d="M2577.26,1302.84L2577.74,1304.34L2579.32,1304.34L2578.05,1305.27L2578.53,1306.77L2577.26,1305.84L2575.98,1306.77L2576.47,1305.27L2575.19,1304.34L2576.77,1304.34L2577.26,1302.84Z" style="fill:white;"/>
                            </g>
                            <g transform="matrix(0.807724,0,0,0.76638,-1088.84,1673.08)">
                                <path d="M2577.26,1302.84L2577.74,1304.34L2579.32,1304.34L2578.05,1305.27L2578.53,1306.77L2577.26,1305.84L2575.98,1306.77L2576.47,1305.27L2575.19,1304.34L2576.77,1304.34L2577.26,1302.84Z" style="fill:white;"/>
                            </g>
                            <g transform="matrix(0.714177,0,0,0.856168,-848.093,1560.44)">
                                <path d="M2577.26,1302.84L2577.74,1304.34L2579.32,1304.34L2578.05,1305.27L2578.53,1306.77L2577.26,1305.84L2575.98,1306.77L2576.47,1305.27L2575.19,1304.34L2576.77,1304.34L2577.26,1302.84Z" style="fill:white;"/>
                            </g>
                            <g transform="matrix(0.659469,0,0,0.752494,-707.002,1701.35)">
                                <path d="M2577.26,1302.84L2577.74,1304.34L2579.32,1304.34L2578.05,1305.27L2578.53,1306.77L2577.26,1305.84L2575.98,1306.77L2576.47,1305.27L2575.19,1304.34L2576.77,1304.34L2577.26,1302.84Z" style="fill:white;"/>
                            </g>
                            <g transform="matrix(0.745499,0,0,0.796657,-923.454,1634.37)">
                                <path d="M2577.26,1302.84L2577.74,1304.34L2579.32,1304.34L2578.05,1305.27L2578.53,1306.77L2577.26,1305.84L2575.98,1306.77L2576.47,1305.27L2575.19,1304.34L2576.77,1304.34L2577.26,1302.84Z" style="fill:white;"/>
                            </g>
                            <g transform="matrix(0.942616,0,0,0.925598,-1427.63,1463.55)">
                                <path d="M2577.26,1302.84L2577.74,1304.34L2579.32,1304.34L2578.05,1305.27L2578.53,1306.77L2577.26,1305.84L2575.98,1306.77L2576.47,1305.27L2575.19,1304.34L2576.77,1304.34L2577.26,1302.84Z" style="fill:white;"/>
                            </g>
                            <g transform="matrix(0.977278,0,0,1.01643,-1515.93,1336.52)">
                                <path d="M2577.26,1302.84L2577.74,1304.34L2579.32,1304.34L2578.05,1305.27L2578.53,1306.77L2577.26,1305.84L2575.98,1306.77L2576.47,1305.27L2575.19,1304.34L2576.77,1304.34L2577.26,1302.84Z" style="fill:white;"/>
                            </g>
                            <g transform="matrix(0.908371,0,0,0.922361,-1336.12,1463.75)">
                                <path d="M2577.26,1302.84L2577.74,1304.34L2579.32,1304.34L2578.05,1305.27L2578.53,1306.77L2577.26,1305.84L2575.98,1306.77L2576.47,1305.27L2575.19,1304.34L2576.77,1304.34L2577.26,1302.84Z" style="fill:white;"/>
                            </g>
                            <g transform="matrix(1.05621,0,0,1.05965,-1712.36,1280.57)">
                                <path d="M2577.26,1302.84L2577.74,1304.34L2579.32,1304.34L2578.05,1305.27L2578.53,1306.77L2577.26,1305.84L2575.98,1306.77L2576.47,1305.27L2575.19,1304.34L2576.77,1304.34L2577.26,1302.84Z" style="fill:white;"/>
                            </g>
                            <g transform="matrix(0.938607,0,0,0.94309,-1436.79,1448.65)">
                                <path d="M2577.26,1302.84L2577.74,1304.34L2579.32,1304.34L2578.05,1305.27L2578.53,1306.77L2577.26,1305.84L2575.98,1306.77L2576.47,1305.27L2575.19,1304.34L2576.77,1304.34L2577.26,1302.84Z" style="fill:white;"/>
                            </g>
                            <g transform="matrix(0.893274,0,0,0.870622,-1377.96,1525.92)">
                                <path d="M2577.26,1302.84L2577.74,1304.34L2579.32,1304.34L2578.05,1305.27L2578.53,1306.77L2577.26,1305.84L2575.98,1306.77L2576.47,1305.27L2575.19,1304.34L2576.77,1304.34L2577.26,1302.84Z" style="fill:white;"/>
                            </g>
                        </g>
                    </g>
                </g>
            </g>
        </g>
    </g>
</svg>
