<?xml version="1.0" encoding="UTF-8" standalone="no"?>
<!DOCTYPE svg PUBLIC "-//W3C//DTD SVG 1.1//EN" "http://www.w3.org/Graphics/SVG/1.1/DTD/svg11.dtd">
<svg width="100%" height="100%" viewBox="0 0 95 95" version="1.1" xmlns="http://www.w3.org/2000/svg" xmlns:xlink="http://www.w3.org/1999/xlink" xml:space="preserve" xmlns:serif="http://www.serif.com/" style="fill-rule:evenodd;clip-rule:evenodd;stroke-linejoin:round;stroke-miterlimit:2;">
    <g transform="matrix(1,0,0,1,-2691.68,-871.064)">
        <g transform="matrix(0.219988,0,0,0.170756,2651.63,987.784)">
            <g transform="matrix(0.188769,0,0,0.188769,300.024,-473.819)">
                <g transform="matrix(8.83406,0,0,11.3811,-8038.22,-29752.6)">
                    <circle cx="967.401" cy="2644.84" r="128.239" style="fill:rgb(177,24,0);"/>
                </g>
                <g>
                    <g transform="matrix(1.34269,0,0,1.74539,-840.355,-4600.33)">
                        <path d="M574.977,2417.9L615.641,2543.05L747.233,2543.05L640.773,2620.4L681.437,2745.55L574.977,2668.2L468.516,2745.55L509.18,2620.4L402.72,2543.05L534.312,2543.05L574.977,2417.9Z" style="fill:rgb(254,196,1);"/>
                    </g>
                    <g transform="matrix(0.422373,0.232347,-0.181974,0.549051,554.714,-1932.74)">
                        <path d="M574.977,2417.9L615.641,2543.05L747.233,2543.05L640.773,2620.4L681.437,2745.55L574.977,2668.2L468.516,2745.55L509.18,2620.4L402.72,2543.05L534.312,2543.05L574.977,2417.9Z" style="fill:rgb(254,196,1);"/>
                    </g>
                    <g transform="matrix(0.320778,0.423435,-0.331634,0.416985,1156.52,-1492.8)">
                        <path d="M574.977,2417.9L615.641,2543.05L747.233,2543.05L640.773,2620.4L681.437,2745.55L574.977,2668.2L468.516,2745.55L509.18,2620.4L402.72,2543.05L534.312,2543.05L574.977,2417.9Z" style="fill:rgb(254,196,1);"/>
                    </g>
                    <g transform="matrix(0.158152,0.55549,-0.43506,0.205585,1521.61,-706.603)">
                        <path d="M574.977,2417.9L615.641,2543.05L747.233,2543.05L640.773,2620.4L681.437,2745.55L574.977,2668.2L468.516,2745.55L509.18,2620.4L402.72,2543.05L534.312,2543.05L574.977,2417.9Z" style="fill:rgb(254,196,1);"/>
                    </g>
                    <g transform="matrix(-0.0138695,0.591409,-0.463191,-0.0180292,1534.8,59.7047)">
                        <path d="M574.977,2417.9L615.641,2543.05L747.233,2543.05L640.773,2620.4L681.437,2745.55L574.977,2668.2L468.516,2745.55L509.18,2620.4L402.72,2543.05L534.312,2543.05L574.977,2417.9Z" style="fill:rgb(254,196,1);"/>
                    </g>
                </g>
            </g>
        </g>
    </g>
</svg>
