<?xml version="1.0" encoding="UTF-8" standalone="no"?>
<!DOCTYPE svg PUBLIC "-//W3C//DTD SVG 1.1//EN" "http://www.w3.org/Graphics/SVG/1.1/DTD/svg11.dtd">
<svg width="100%" height="100%" viewBox="0 0 95 95" version="1.1" xmlns="http://www.w3.org/2000/svg" xmlns:xlink="http://www.w3.org/1999/xlink" xml:space="preserve" xmlns:serif="http://www.serif.com/" style="fill-rule:evenodd;clip-rule:evenodd;stroke-linejoin:round;stroke-miterlimit:2;">
    <g transform="matrix(1,0,0,1,-2691.68,-988.341)">
        <g transform="matrix(0.219988,0,0,0.170756,2651.63,987.784)">
            <g transform="matrix(1.6676,0,0,2.14839,-1217.34,-5403.38)">
                <circle cx="967.401" cy="2644.84" r="128.239" style="fill:rgb(177,24,0);"/>
                <clipPath id="_clip1">
                    <circle cx="967.401" cy="2644.84" r="128.239"/>
                </clipPath>
                <g clip-path="url(#_clip1)">
                    <g>
                        <g transform="matrix(1.25017,0,0,1.58668,-1675.94,661.925)">
                            <rect x="2005.8" y="1222.16" width="219.348" height="57.929" style="fill:rgb(254,254,254);"/>
                        </g>
                        <g transform="matrix(1.20116,0,0,1.58668,-1576.52,571.223)">
                            <rect x="2005.8" y="1222.16" width="219.348" height="57.929" style="fill:rgb(255,153,53);"/>
                        </g>
                        <g transform="matrix(1.20116,0,0,1.58668,-1574.85,748.348)">
                            <rect x="2005.8" y="1222.16" width="219.348" height="57.929" style="fill:rgb(17,136,6);"/>
                        </g>
                    </g>
                    <g>
                        <g transform="matrix(1.27462,0,0,1.27462,-1729.03,972.715)">
                            <path d="M2115.61,1285.08C2130.43,1285.08 2142.47,1297.12 2142.47,1311.95C2142.47,1326.78 2130.43,1338.82 2115.61,1338.82C2100.78,1338.82 2088.74,1326.78 2088.74,1311.95C2088.74,1297.12 2100.78,1285.08 2115.61,1285.08ZM2115.61,1288.47C2128.56,1288.47 2139.08,1298.99 2139.08,1311.95C2139.08,1324.91 2128.56,1335.43 2115.61,1335.43C2102.65,1335.43 2092.13,1324.91 2092.13,1311.95C2092.13,1298.99 2102.65,1288.47 2115.61,1288.47Z" style="fill:rgb(10,6,147);"/>
                        </g>
                        <g>
                            <g transform="matrix(1.27462,0,0,1.27462,-1727.13,963.119)">
                                <circle cx="2099.56" cy="1300.79" r="1.294" style="fill:rgb(10,6,147);"/>
                            </g>
                            <g transform="matrix(1.27462,0,0,1.27462,-1720.3,959.072)">
                                <circle cx="2099.56" cy="1300.79" r="1.294" style="fill:rgb(10,6,147);"/>
                            </g>
                            <g transform="matrix(1.27462,0,0,1.27462,-1712.6,957.045)">
                                <circle cx="2099.56" cy="1300.79" r="1.294" style="fill:rgb(10,6,147);"/>
                            </g>
                            <g transform="matrix(1.27462,0,0,1.27462,-1704.71,957.009)">
                                <circle cx="2099.56" cy="1300.79" r="1.294" style="fill:rgb(10,6,147);"/>
                            </g>
                            <g transform="matrix(1.27462,0,0,1.27462,-1697.13,959.056)">
                                <circle cx="2099.56" cy="1300.79" r="1.294" style="fill:rgb(10,6,147);"/>
                            </g>
                            <g transform="matrix(1.27462,0,0,1.27462,-1690.37,963.051)">
                                <circle cx="2099.56" cy="1300.79" r="1.294" style="fill:rgb(10,6,147);"/>
                            </g>
                            <g transform="matrix(1.27462,0,0,1.27462,-1684.85,968.447)">
                                <circle cx="2099.56" cy="1300.79" r="1.294" style="fill:rgb(10,6,147);"/>
                            </g>
                            <g transform="matrix(1.27462,0,0,1.27462,-1680.87,975.362)">
                                <circle cx="2099.56" cy="1300.79" r="1.294" style="fill:rgb(10,6,147);"/>
                            </g>
                            <g transform="matrix(1.27462,0,0,1.27462,-1678.8,982.884)">
                                <circle cx="2099.56" cy="1300.79" r="1.294" style="fill:rgb(10,6,147);"/>
                            </g>
                            <g transform="matrix(1.27462,0,0,1.27462,-1678.86,990.907)">
                                <circle cx="2099.56" cy="1300.79" r="1.294" style="fill:rgb(10,6,147);"/>
                            </g>
                            <g transform="matrix(1.27462,0,0,1.27462,-1681,998.577)">
                                <circle cx="2099.56" cy="1300.79" r="1.294" style="fill:rgb(10,6,147);"/>
                            </g>
                            <g transform="matrix(1.27462,0,0,1.27462,-1684.85,1005.45)">
                                <circle cx="2099.56" cy="1300.79" r="1.294" style="fill:rgb(10,6,147);"/>
                            </g>
                            <g transform="matrix(1.27462,0,0,1.27462,-1690.22,1010.82)">
                                <circle cx="2099.56" cy="1300.79" r="1.294" style="fill:rgb(10,6,147);"/>
                            </g>
                            <g transform="matrix(1.27462,0,0,1.27462,-1697.05,1014.66)">
                                <circle cx="2099.56" cy="1300.79" r="1.294" style="fill:rgb(10,6,147);"/>
                            </g>
                            <g transform="matrix(1.27462,0,0,1.27462,-1704.71,1016.83)">
                                <circle cx="2099.56" cy="1300.79" r="1.294" style="fill:rgb(10,6,147);"/>
                            </g>
                            <g transform="matrix(1.27462,0,0,1.27462,-1712.57,1016.79)">
                                <circle cx="2099.56" cy="1300.79" r="1.294" style="fill:rgb(10,6,147);"/>
                            </g>
                            <g transform="matrix(1.27462,0,0,1.27462,-1720.45,1014.74)">
                                <circle cx="2099.56" cy="1300.79" r="1.294" style="fill:rgb(10,6,147);"/>
                            </g>
                            <g transform="matrix(1.27462,0,0,1.27462,-1727.3,1010.55)">
                                <circle cx="2099.56" cy="1300.79" r="1.294" style="fill:rgb(10,6,147);"/>
                            </g>
                            <g transform="matrix(1.27462,0,0,1.27462,-1732.82,1005.26)">
                                <circle cx="2099.56" cy="1300.79" r="1.294" style="fill:rgb(10,6,147);"/>
                            </g>
                            <g transform="matrix(1.27462,0,0,1.27462,-1736.45,998.492)">
                                <circle cx="2099.56" cy="1300.79" r="1.294" style="fill:rgb(10,6,147);"/>
                            </g>
                            <g transform="matrix(1.27462,0,0,1.27462,-1738.57,990.819)">
                                <circle cx="2099.56" cy="1300.79" r="1.294" style="fill:rgb(10,6,147);"/>
                            </g>
                            <g transform="matrix(1.27462,0,0,1.27462,-1738.48,982.693)">
                                <circle cx="2099.56" cy="1300.79" r="1.294" style="fill:rgb(10,6,147);"/>
                            </g>
                            <g transform="matrix(1.27462,0,0,1.27462,-1736.32,975.226)">
                                <circle cx="2099.56" cy="1300.79" r="1.294" style="fill:rgb(10,6,147);"/>
                            </g>
                            <g transform="matrix(1.27462,0,0,1.27462,-1732.66,968.631)">
                                <circle cx="2099.56" cy="1300.79" r="1.294" style="fill:rgb(10,6,147);"/>
                            </g>
                        </g>
                        <g transform="matrix(1.25298,0,0,1.24492,-1674.04,1008.49)">
                            <circle cx="2108.21" cy="1314.32" r="4.872" style="fill:rgb(10,6,147);"/>
                        </g>
                        <g>
                            <g>
                                <g transform="matrix(-0.596901,0.16189,-0.341047,-1.25747,2663.17,3923.65)">
                                    <path d="M2104.96,1292.33L2106.51,1297.38L2104.96,1310.89L2103.22,1297.38L2104.96,1292.33Z" style="fill:rgb(10,6,147);"/>
                                </g>
                                <g transform="matrix(-0.61845,0.00431858,-0.00909776,-1.30286,2281.11,4313.98)">
                                    <path d="M2104.96,1292.33L2106.51,1297.38L2104.96,1310.89L2103.22,1297.38L2104.96,1292.33Z" style="fill:rgb(10,6,147);"/>
                                </g>
                                <g transform="matrix(-0.596623,-0.162911,0.343198,-1.25688,1781.08,4606.8)">
                                    <path d="M2104.96,1292.33L2106.51,1297.38L2104.96,1310.89L2103.22,1297.38L2104.96,1292.33Z" style="fill:rgb(10,6,147);"/>
                                </g>
                                <g transform="matrix(-0.441049,-0.43356,0.913362,-0.92914,719.039,4754.71)">
                                    <path d="M2104.96,1292.33L2106.51,1297.38L2104.96,1310.89L2103.22,1297.38L2104.96,1292.33Z" style="fill:rgb(10,6,147);"/>
                                </g>
                                <g transform="matrix(-0.147469,-0.600626,1.26531,-0.310666,-352.706,4309.11)">
                                    <path d="M2104.96,1292.33L2106.51,1297.38L2104.96,1310.89L2103.22,1297.38L2104.96,1292.33Z" style="fill:rgb(10,6,147);"/>
                                </g>
                                <g transform="matrix(0.145492,-0.601108,1.26633,0.306502,-970.797,3515.53)">
                                    <path d="M2104.96,1292.33L2106.51,1297.38L2104.96,1310.89L2103.22,1297.38L2104.96,1292.33Z" style="fill:rgb(10,6,147);"/>
                                </g>
                                <g transform="matrix(0.435467,-0.439167,0.925175,0.917379,-1141.49,2387.24)">
                                    <path d="M2104.96,1292.33L2106.51,1297.38L2104.96,1310.89L2103.22,1297.38L2104.96,1292.33Z" style="fill:rgb(10,6,147);"/>
                                </g>
                                <g transform="matrix(0.536265,-0.308088,0.649036,1.12973,-997.466,1837.92)">
                                    <path d="M2104.96,1292.33L2106.51,1297.38L2104.96,1310.89L2103.22,1297.38L2104.96,1292.33Z" style="fill:rgb(10,6,147);"/>
                                </g>
                                <g transform="matrix(0.599226,-0.153058,0.322442,1.26236,-709.101,1340.51)">
                                    <path d="M2104.96,1292.33L2106.51,1297.38L2104.96,1310.89L2103.22,1297.38L2104.96,1292.33Z" style="fill:rgb(10,6,147);"/>
                                </g>
                                <g transform="matrix(0.312213,-0.533874,1.12469,0.657726,-1138.7,2921.15)">
                                    <path d="M2104.96,1292.33L2106.51,1297.38L2104.96,1310.89L2103.22,1297.38L2104.96,1292.33Z" style="fill:rgb(10,6,147);"/>
                                </g>
                                <g transform="matrix(-0.538833,-0.303576,0.63953,-1.13514,1277.84,4746.65)">
                                    <path d="M2104.96,1292.33L2106.51,1297.38L2104.96,1310.89L2103.22,1297.38L2104.96,1292.33Z" style="fill:rgb(10,6,147);"/>
                                </g>
                                <g transform="matrix(-0.306472,-0.537191,1.13168,-0.645632,154.648,4607.34)">
                                    <path d="M2104.96,1292.33L2106.51,1297.38L2104.96,1310.89L2103.22,1297.38L2104.96,1292.33Z" style="fill:rgb(10,6,147);"/>
                                </g>
                                <g transform="matrix(0.0128763,-0.618331,1.30261,0.0271259,-737.783,3911.3)">
                                    <path d="M2104.96,1292.33L2106.51,1297.38L2104.96,1310.89L2103.22,1297.38L2104.96,1292.33Z" style="fill:rgb(10,6,147);"/>
                                </g>
                            </g>
                            <g transform="matrix(-0.690024,0.723786,0.723786,0.690024,-279.682,119.083)">
                                <g transform="matrix(-0.594887,0.169139,-0.356318,-1.25322,2678.45,3903.19)">
                                    <path d="M2104.96,1292.33L2106.51,1297.38L2104.96,1310.89L2103.22,1297.38L2104.96,1292.33Z" style="fill:rgb(10,6,147);"/>
                                </g>
                                <g transform="matrix(-0.333037,-0.521139,1.09786,-0.701594,254.104,4646.54)">
                                    <path d="M2104.96,1292.33L2106.51,1297.38L2104.96,1310.89L2103.22,1297.38L2104.96,1292.33Z" style="fill:rgb(10,6,147);"/>
                                </g>
                                <g transform="matrix(-0.0164993,-0.618245,1.30243,-0.0347583,-676.112,3991.73)">
                                    <path d="M2104.96,1292.33L2106.51,1297.38L2104.96,1310.89L2103.22,1297.38L2104.96,1292.33Z" style="fill:rgb(10,6,147);"/>
                                </g>
                                <g transform="matrix(-0.61845,0.00431858,-0.00909776,-1.30286,2280.91,4314.22)">
                                    <path d="M2104.96,1292.33L2106.51,1297.38L2104.96,1310.89L2103.22,1297.38L2104.96,1292.33Z" style="fill:rgb(10,6,147);"/>
                                </g>
                                <g transform="matrix(-0.601341,-0.144524,0.304463,-1.26682,1841.43,4581.04)">
                                    <path d="M2104.96,1292.33L2106.51,1297.38L2104.96,1310.89L2103.22,1297.38L2104.96,1292.33Z" style="fill:rgb(10,6,147);"/>
                                </g>
                                <g transform="matrix(-0.445487,-0.428999,0.903754,-0.938489,740.471,4757.85)">
                                    <path d="M2104.96,1292.33L2106.51,1297.38L2104.96,1310.89L2103.22,1297.38L2104.96,1292.33Z" style="fill:rgb(10,6,147);"/>
                                </g>
                                <g transform="matrix(-0.173394,-0.593661,1.25064,-0.365282,-279.136,4365.77)">
                                    <path d="M2104.96,1292.33L2106.51,1297.38L2104.96,1310.89L2103.22,1297.38L2104.96,1292.33Z" style="fill:rgb(10,6,147);"/>
                                </g>
                                <g transform="matrix(0.145492,-0.601108,1.26633,0.306502,-970.797,3515.53)">
                                    <path d="M2104.96,1292.33L2106.51,1297.38L2104.96,1310.89L2103.22,1297.38L2104.96,1292.33Z" style="fill:rgb(10,6,147);"/>
                                </g>
                                <g transform="matrix(0.427729,-0.446707,0.941058,0.901079,-1145.88,2424.33)">
                                    <path d="M2104.96,1292.33L2106.51,1297.38L2104.96,1310.89L2103.22,1297.38L2104.96,1292.33Z" style="fill:rgb(10,6,147);"/>
                                </g>
                                <g transform="matrix(0.524697,-0.327401,0.689722,1.10536,-1025.84,1910.25)">
                                    <path d="M2104.96,1292.33L2106.51,1297.38L2104.96,1310.89L2103.22,1297.38L2104.96,1292.33Z" style="fill:rgb(10,6,147);"/>
                                </g>
                                <g transform="matrix(0.593593,-0.173628,0.365774,1.2505,-753.44,1399.36)">
                                    <path d="M2104.96,1292.33L2106.51,1297.38L2104.96,1310.89L2103.22,1297.38L2104.96,1292.33Z" style="fill:rgb(10,6,147);"/>
                                </g>
                                <g transform="matrix(0.311071,-0.53454,1.12609,0.655321,-1138.04,2925.87)">
                                    <path d="M2104.96,1292.33L2106.51,1297.38L2104.96,1310.89L2103.22,1297.38L2104.96,1292.33Z" style="fill:rgb(10,6,147);"/>
                                </g>
                                <g transform="matrix(-0.538833,-0.303576,0.63953,-1.13514,1277.84,4746.65)">
                                    <path d="M2104.96,1292.33L2106.51,1297.38L2104.96,1310.89L2103.22,1297.38L2104.96,1292.33Z" style="fill:rgb(10,6,147);"/>
                                </g>
                            </g>
                        </g>
                    </g>
                </g>
            </g>
        </g>
    </g>
</svg>
