<?xml version="1.0" encoding="UTF-8" standalone="no"?>
<!DOCTYPE svg PUBLIC "-//W3C//DTD SVG 1.1//EN" "http://www.w3.org/Graphics/SVG/1.1/DTD/svg11.dtd">
<svg width="100%" height="100%" viewBox="0 0 922 1116" version="1.1" xmlns="http://www.w3.org/2000/svg" xmlns:xlink="http://www.w3.org/1999/xlink" xml:space="preserve" xmlns:serif="http://www.serif.com/" style="fill-rule:evenodd;clip-rule:evenodd;stroke-linejoin:round;stroke-miterlimit:2;">
    <g transform="matrix(1,0,0,1,57.1588,-1037.29)">
        <g transform="matrix(0.685578,0,0,0.532151,458.286,463.156)">
            <g transform="matrix(-1.68834,0,0,1.86826,3925.83,-3815.97)">
                <path d="M2402.93,3537.93C2353,3500.19 2239.78,3390.47 2239.78,3390.47C2239.78,3390.47 2201.6,3352.11 2180.44,3321.41C2173.9,3311.93 2141.35,3281.27 2132.04,3271.55C2114.93,3253.71 2087.07,3228.04 2048.01,3207.55C2009.14,3187.16 1986.53,3173.37 1981.03,3170.47C1971.65,3165.51 1971.88,3138.95 1985.71,3131.12C1993.12,3126.93 1999.96,3127.06 1999.96,3127.06C1999.96,3127.06 2008.68,3117.8 2017.92,3117.63C2073.62,3116.62 2116.51,3124.12 2169.13,3174.51C2213.55,3217.04 2229.82,3247.23 2271.63,3223.41C2307.16,3203.16 2292.05,3118.24 2293.45,3087.22C2295.2,3048.34 2301.14,3009.87 2301.14,3009.87C2301.14,3009.87 2290.07,3028.27 2284.28,3039.74C2249.25,3109.2 2225.48,3072.43 2225.48,3072.43L2209.12,3089.11L2208.96,2845.85C2208.96,2845.85 2218.21,2836.4 2236.32,2822.78C2260.04,2804.93 2259.62,2808.33 2270.83,2805.93C2278.86,2804.21 2303.37,2845.9 2293.83,2831.59C2283.57,2816.2 2275.17,2797.03 2273.04,2794.37C2252.94,2769.19 2250.05,2754.38 2238.92,2740.3C2204.52,2696.79 2180,2686.78 2184.06,2623.9C2184.72,2613.71 2209.3,2625.79 2224.28,2635.05C2237.67,2643.34 2246.7,2659.05 2250.19,2661.27C2302.15,2694.34 2325.78,2747.35 2368.56,2780.82C2383.31,2792.35 2388.68,2869.57 2398.74,2909.08C2402.52,2923.96 2429.03,2949.11 2451.06,2974.6C2457.29,2981.81 2513.06,3015.07 2522.03,3067.81C2527.32,3098.95 2554.36,3139.99 2573.74,3177C2587.05,3202.43 2598.52,3222.47 2624.29,3273.92C2647.26,3319.78 2644.21,3334.4 2665.95,3391.6C2674.3,3413.59 2761.13,3505.56 2761.13,3505.56L2770.57,3739.42L2624.16,3741.72C2624.16,3741.72 2574.71,3653.07 2539.4,3616.92C2488.67,3564.97 2444.87,3569.62 2402.93,3537.93Z" style="fill:rgb(229,167,128);"/>
                <clipPath id="_clip1">
                    <path d="M2402.93,3537.93C2353,3500.19 2239.78,3390.47 2239.78,3390.47C2239.78,3390.47 2201.6,3352.11 2180.44,3321.41C2173.9,3311.93 2141.35,3281.27 2132.04,3271.55C2114.93,3253.71 2087.07,3228.04 2048.01,3207.55C2009.14,3187.16 1986.53,3173.37 1981.03,3170.47C1971.65,3165.51 1971.88,3138.95 1985.71,3131.12C1993.12,3126.93 1999.96,3127.06 1999.96,3127.06C1999.96,3127.06 2008.68,3117.8 2017.92,3117.63C2073.62,3116.62 2116.51,3124.12 2169.13,3174.51C2213.55,3217.04 2229.82,3247.23 2271.63,3223.41C2307.16,3203.16 2292.05,3118.24 2293.45,3087.22C2295.2,3048.34 2301.14,3009.87 2301.14,3009.87C2301.14,3009.87 2290.07,3028.27 2284.28,3039.74C2249.25,3109.2 2225.48,3072.43 2225.48,3072.43L2209.12,3089.11L2208.96,2845.85C2208.96,2845.85 2218.21,2836.4 2236.32,2822.78C2260.04,2804.93 2259.62,2808.33 2270.83,2805.93C2278.86,2804.21 2303.37,2845.9 2293.83,2831.59C2283.57,2816.2 2275.17,2797.03 2273.04,2794.37C2252.94,2769.19 2250.05,2754.38 2238.92,2740.3C2204.52,2696.79 2180,2686.78 2184.06,2623.9C2184.72,2613.71 2209.3,2625.79 2224.28,2635.05C2237.67,2643.34 2246.7,2659.05 2250.19,2661.27C2302.15,2694.34 2325.78,2747.35 2368.56,2780.82C2383.31,2792.35 2388.68,2869.57 2398.74,2909.08C2402.52,2923.96 2429.03,2949.11 2451.06,2974.6C2457.29,2981.81 2513.06,3015.07 2522.03,3067.81C2527.32,3098.95 2554.36,3139.99 2573.74,3177C2587.05,3202.43 2598.52,3222.47 2624.29,3273.92C2647.26,3319.78 2644.21,3334.4 2665.95,3391.6C2674.3,3413.59 2761.13,3505.56 2761.13,3505.56L2770.57,3739.42L2624.16,3741.72C2624.16,3741.72 2574.71,3653.07 2539.4,3616.92C2488.67,3564.97 2444.87,3569.62 2402.93,3537.93Z"/>
                </clipPath>
                <g clip-path="url(#_clip1)">
                    <g>
                        <g transform="matrix(-0.57327,0,0,0.66743,2734.19,791.651)">
                            <path d="M586.595,3073.82C586.595,3073.82 589.916,3149.93 578.162,3222.79C574.964,3242.61 570.652,3262.16 564.893,3279.92C560.748,3292.7 555.989,3304.57 549.965,3314.74C544.062,3325.29 540.313,3334.43 537.977,3343.08C534.68,3355.27 533.897,3366.27 533.008,3378.53C531.639,3397.43 529.857,3419.33 515.04,3454.67C514.43,3455.91 514.94,3457.41 516.179,3458.02C517.417,3458.63 518.918,3458.12 519.527,3456.88C528.32,3441.59 534.163,3428.76 538.224,3417.41C545.419,3397.3 547.082,3382.25 549.766,3367.76C552.262,3354.27 555.663,3341.37 566.47,3324.61C573.298,3313.3 579.074,3300.18 583.533,3285.84C589.375,3267.04 593.211,3246.21 595.587,3225.17C604.025,3150.45 594.753,3073.15 594.753,3073.15C594.568,3070.9 592.59,3069.22 590.339,3069.4C588.088,3069.59 586.41,3071.57 586.595,3073.82Z" style="fill:rgb(220,156,116);"/>
                        </g>
                        <g transform="matrix(-0.477449,0.36942,0.317303,0.555869,1533.97,676.991)">
                            <path d="M690.496,3025.28C690.496,3025.28 668.107,3039.22 646.046,3063.98C633.898,3077.62 621.984,3094.54 613.739,3114.1C607.301,3129.49 608.558,3141.53 603.206,3156.16C601.569,3160.64 599.188,3165.36 595.602,3170.61C585.311,3185.84 577.923,3205.61 572.321,3226.81C568.601,3240.89 565.573,3255.59 562.92,3269.91C560.149,3284.86 557.881,3299.39 554.899,3312.2C547.914,3344.87 548.37,3356.02 542.785,3378.88C539.316,3393.08 533.715,3411.77 522.307,3443.08C521.764,3444.35 522.354,3445.82 523.624,3446.36C524.893,3446.9 526.364,3446.31 526.906,3445.04C541.908,3414.65 549.83,3396.44 554.693,3382.39C562.426,3360.06 562.522,3348.75 572.082,3316.58C576.213,3301.6 579.944,3284.33 583.581,3266.57C586.929,3250.23 590.219,3233.48 594.732,3217.99C598.822,3203.95 603.673,3190.91 610.385,3180.27C614.641,3173.46 617.387,3167.35 619.201,3161.61C623.846,3146.89 621.898,3135.01 627.529,3119.48C634.182,3100.96 644.465,3084.76 654.985,3071.5C674.63,3046.72 695.037,3032.09 695.037,3032.09C696.916,3030.84 697.425,3028.29 696.172,3026.41C694.919,3024.53 692.375,3024.03 690.496,3025.28Z" style="fill:rgb(220,156,116);"/>
                        </g>
                        <g transform="matrix(-0.526608,0.263754,0.14939,0.404298,2227.46,1459.28)">
                            <path d="M561.896,3195.47C561.896,3195.47 571.111,3215.46 567.749,3253.82C566.929,3263.18 565.843,3273.32 563.686,3284.55C558.232,3312.95 548.758,3346.18 530.321,3385.62C529.57,3386.83 529.605,3388.73 530.398,3389.87C531.192,3391.01 532.446,3390.95 533.198,3389.75C567.629,3347.92 585.608,3309.8 595.003,3277.09C614.959,3207.59 596.347,3163.38 596.347,3163.38C590.507,3148.96 578.047,3144.45 568.54,3153.3C559.033,3162.16 556.056,3181.06 561.896,3195.47L561.896,3195.47Z" style="fill:rgb(220,156,116);"/>
                        </g>
                        <g transform="matrix(-0.564651,0.115303,0.135428,0.898961,2386.38,78.2884)">
                            <path d="M567.023,3115.27C544.719,3134.6 532.25,3153.75 529.689,3176.82C523.309,3234.29 574.638,3306.8 541.443,3379.27C568.077,3346.77 572.547,3310.93 575.321,3276.01C577.251,3251.72 577.914,3228.61 583.385,3207.64C586.662,3195.08 593.659,3184.7 603.052,3175.32C607.913,3170.47 615.62,3168.12 623.602,3164.77C642.28,3153.35 644.768,3132.99 629.155,3119.33C613.541,3105.67 585.701,3103.85 567.023,3115.27Z" style="fill:rgb(220,156,116);"/>
                        </g>
                    </g>
                    <g>
                        <g transform="matrix(-0.648754,-0.404613,-0.270701,0.588332,3581.51,1365.23)">
                            <path d="M936.364,2786.63C962.119,2786.63 983.029,2797.64 983.029,2811.21C983.029,2824.78 982.444,2841.58 939.044,2832.25C905.953,2825.13 889.75,2819.27 889.699,2811.21C889.612,2797.64 910.609,2786.63 936.364,2786.63Z" style="fill:rgb(177,24,0);"/>
                        </g>
                        <g transform="matrix(-0.819425,-0.511057,-0.538161,1.16962,4292.87,353.529)">
                            <path d="M937.539,2788.43C963.295,2788.43 983.029,2797.64 983.029,2811.21C983.029,2824.78 982.384,2842.04 938.983,2832.71C905.893,2825.59 889.882,2819.27 889.699,2811.21C889.09,2784.47 911.784,2788.43 937.539,2788.43Z" style="fill:rgb(177,24,0);"/>
                        </g>
                        <g transform="matrix(-0.572912,0,0,0.66743,2733.93,791.651)">
                            <path d="M1014.27,3547.84C1068.52,3516.23 928.304,3547.81 867.129,3496.03C789.895,3430.66 738.959,3294.34 756.57,3345.92C777.284,3406.59 753.205,3487.31 737.556,3630.51C727.052,3726.62 751.579,3667.6 813.696,3668.06C858.722,3668.39 866.448,3691.36 931.176,3628.88C946.394,3614.18 985.378,3564.68 1014.27,3547.84Z" style="fill:rgb(220,156,116);"/>
                        </g>
                        <g transform="matrix(-0.572912,0,0,0.66743,2716.48,608.038)">
                            <path d="M972.568,3602.56C1026.81,3570.95 971.964,3473.08 910.789,3421.3C833.555,3355.92 808.114,3403.39 800.014,3450.96C791.727,3499.62 728.099,3500.93 727.085,3522.97C724.911,3570.26 727.853,3597.62 731.224,3628.62C735.045,3663.78 742.153,3592.02 778.682,3586.17C808.746,3581.36 832.336,3617.59 842.153,3646.88C856.433,3689.5 854.856,3737.23 854.856,3737.23C854.856,3737.23 867.733,3701.62 870.043,3679.06C871.842,3661.49 834.817,3585.96 861.47,3566.95C884.763,3550.35 886.596,3540.41 874.728,3550.87C836.247,3584.78 826.184,3525.23 833.49,3517.32C873.712,3473.77 956.54,3611.9 972.568,3602.56Z" style="fill:rgb(220,156,116);"/>
                        </g>
                    </g>
                </g>
            </g>
        </g>
    </g>
</svg>
