<?xml version="1.0" encoding="UTF-8" standalone="no"?>
<!DOCTYPE svg PUBLIC "-//W3C//DTD SVG 1.1//EN" "http://www.w3.org/Graphics/SVG/1.1/DTD/svg11.dtd">
<svg width="100%" height="100%" viewBox="0 0 3916 1978" version="1.1" xmlns="http://www.w3.org/2000/svg" xmlns:xlink="http://www.w3.org/1999/xlink" xml:space="preserve" xmlns:serif="http://www.serif.com/" style="fill-rule:evenodd;clip-rule:evenodd;stroke-linejoin:round;stroke-miterlimit:2;">
    <g id="Artboard--Project-Kodiak" serif:id="Artboard  Project Kodiak" transform="matrix(0.699845,0,0,0.543225,466.213,463.128)">
        <rect x="-666.166" y="-852.553" width="5595.53" height="3641.22" style="fill:none;"/>
        <clipPath id="_clip1">
            <rect x="-666.166" y="-852.553" width="5595.53" height="3641.22"/>
        </clipPath>
        <g clip-path="url(#_clip1)">
            <g id="Background">
                <g transform="matrix(2.08557,0,1.41821e-16,4.2751,-2076.48,-18733.9)">
                    <rect x="676.222" y="4181.57" width="2682.97" height="655.886" style="fill:rgb(163,201,220);"/>
                </g>
                <g transform="matrix(0.817651,0,0,0.817651,-378.247,-148.112)">
                    <g transform="matrix(1.74755,0,0,2.2514,-264.989,-863.3)">
                        <path d="M3502.34,252.898C3491.58,252.978 3481.46,252.903 3472.53,252.667C3425.99,251.437 3390.83,250.089 3357.64,248.211C3276.6,243.626 3270.79,216.748 3270.49,190.848C3270.18,164.675 3331.06,143.655 3363.96,143.655C3367.56,143.655 3371.09,144.028 3374.51,144.744C3387.38,118.278 3417.59,99.676 3452.78,99.676C3480.1,99.676 3504.41,110.886 3519.95,128.286C3529.53,125.937 3539.78,124.666 3550.41,124.666C3592.6,124.666 3655.82,155.024 3681.73,187.644C3694.87,190.594 3706.29,197.127 3714.39,205.92C3721.32,204.277 3728.71,203.388 3736.39,203.388C3775.53,203.388 3839.69,238.413 3839.69,266.834C3839.69,279.2 3808.35,296.213 3789.73,300.437C3756.02,308.084 3688.22,312.811 3637.45,312.715C3586.69,312.619 3507.97,307.962 3485.12,299.862C3448.2,286.777 3465.42,266.678 3502.34,252.898Z" style="fill:rgb(234,241,233);"/>
                    </g>
                    <g transform="matrix(1.74755,0,0,2.2514,-352.129,-861.543)">
                        <path d="M1009.78,230.419C977.334,231.969 942.694,232.055 912.803,231.579C855.439,230.665 796.859,225.815 766.154,217.475C729.902,207.628 715.939,188.582 715.939,175.343C715.939,130.812 746.932,94.659 785.106,94.659C789.286,94.659 793.38,95.092 797.356,95.922C812.282,65.211 847.344,43.625 888.174,43.625C919.871,43.625 948.091,56.634 966.115,76.825C977.242,74.099 989.127,72.625 1001.47,72.625C1058.3,72.625 1153.52,96.017 1165.39,149.224C1175.78,153.281 1184.81,159.382 1191.75,166.912C1199.78,165.005 1208.37,163.973 1217.28,163.973C1262.69,163.973 1343.94,184.637 1342.87,221.519C1342.49,234.575 1322.72,259.13 1271.12,258.947C1251.02,258.876 1239.3,247.795 1230.05,255.873C1200.39,281.792 1027.66,287.955 1011.06,235.835C1010.48,234.019 1010.06,232.213 1009.78,230.419Z" style="fill:rgb(234,241,233);"/>
                    </g>
                </g>
                <g transform="matrix(1,0,0,1,-2.58418,-151.088)">
                    <g transform="matrix(1.42889,0,0,1.84086,-10.762,-4762.85)">
                        <path d="M-458.681,4102.17C-457.096,4102.17 -168.194,3103.17 672.412,3137.94C1069.33,3154.35 1218.25,2945.24 1444.5,3050.95C1670.76,3156.66 1855.07,2764.7 1988.12,2610.4C2121.17,2456.11 2286.36,2004.91 2556.4,2154.48C2761.04,2267.83 2777.68,2471.16 2994.41,2593.9C3172.04,2694.49 3452.7,2710.1 3452.7,2710.1L3459.84,4103.26C3459.84,4103.26 -457.096,4102.17 -458.681,4102.17Z" style="fill:rgb(119,164,185);"/>
                    </g>
                    <g transform="matrix(1.42889,0,0,1.84086,-721.345,-4750.52)">
                        <path d="M39.81,3112.18C39.81,3112.18 145.087,2998.62 329.254,3203.03C616.195,3521.5 729.16,2824.45 1433.08,2897.37C1681.48,2923.11 2355.66,2917.02 2480.75,2756.2C2641.84,2549.11 2714.58,2339.48 2892.08,2433.43C3075.51,2530.51 3214.37,2899.33 3346.92,2948.49C3720.6,3087.07 3664.39,2796.3 3846.18,2686.66C3907.82,2649.48 3956.03,2749.35 3956.03,2749.35L3958.01,4093.93L43.434,4091.61L39.81,3112.18Z" style="fill:rgb(103,127,139);"/>
                    </g>
                </g>
                <g transform="matrix(1.28588,0,0,1.33543,-378.013,-2776.2)">
                    <rect x="-220.13" y="3245.01" width="4347.57" height="922.07" style="fill:rgb(23,75,71);"/>
                </g>
                <g transform="matrix(0.978092,0,0,0.985664,18.3373,15.3111)">
                    <g transform="matrix(0.980701,-0.251885,0.15176,0.980701,59.833,-100.499)">
                        <g transform="matrix(1,0,0,1,-23.7774,-121.266)">
                            <g transform="matrix(1.42889,0,0,1.84086,-721.345,-4750.52)">
                                <path d="M93.763,2163.49C88.699,2188.27 93.042,2210.46 112.705,2235.22C131.61,2259.03 166.813,2286.51 224.687,2324.66C271.669,2355.62 317.816,2380.99 363.884,2402.7C412.851,2425.79 461.649,2444.79 511.157,2462.12C620.298,2500.33 723.456,2533.2 802.382,2607.6C848.968,2651.51 887.042,2709.83 913.061,2792.06C913.705,2794.22 915.989,2795.46 918.159,2794.83C920.329,2794.19 921.568,2791.93 920.924,2789.77C896.966,2704.41 859.567,2643.34 813.176,2596.67C734.894,2517.91 630.667,2480.38 520.239,2437.65C472.26,2419.09 425.023,2398.92 377.76,2374.74C333.809,2352.25 289.891,2326.23 245.349,2294.75C203.736,2265.34 174.895,2242.9 156.406,2223.56C138.125,2204.44 131.654,2189.98 135.762,2172.79C138.311,2161.29 130.971,2149.87 119.381,2147.3C107.791,2144.74 96.312,2151.99 93.763,2163.49Z" style="fill:rgb(4,42,3);"/>
                            </g>
                            <g transform="matrix(0.0610322,-0.317361,0.229049,0.0731103,-557.494,-478.952)">
                                <path d="M-101.142,1877.54C-101.142,1877.54 -55.829,2072.65 68.65,2263.95C139.117,2372.25 234.623,2479.43 361.337,2549.55C633.966,2700.44 804.656,2825.09 909.213,2954.47C1015.26,3085.7 1052.65,3221.4 1060.3,3393.21C1060.43,3397.78 1063.96,3401.37 1068.17,3401.23C1072.39,3401.1 1075.7,3397.28 1075.57,3392.71C1073.29,3214.54 1038.13,3072.94 932.641,2933C830.045,2796.9 660.155,2662.52 386.605,2498.07C271.268,2428.74 186.128,2325.93 124.02,2223.18C13.726,2040.7 -23.18,1857.62 -23.18,1857.62C-28.266,1834.31 -49.862,1819.83 -71.377,1825.33C-92.891,1830.83 -106.228,1854.22 -101.142,1877.54Z" style="fill:rgb(4,42,3);"/>
                            </g>
                            <g transform="matrix(0.219553,0.143718,-0.121058,0.334648,-69.3603,-1044.64)">
                                <path d="M-392.224,1912.03C-165.079,1988.98 9.565,2111.45 128.383,2252.83C269.404,2420.63 332.27,2614.71 310.901,2790.34C287.686,2981.13 427.421,3215.09 644.133,3388.16C842.667,3546.73 1104.52,3654.41 1358.32,3630.75C1362.69,3630.39 1366.02,3627.07 1365.76,3623.35C1365.5,3619.63 1361.73,3616.91 1357.36,3617.27C1109.52,3635.58 857.273,3525.46 667.968,3366.99C466.464,3198.32 335.367,2974.87 362.228,2793.74C389.842,2607.53 329.012,2399.87 184.116,2218.64C62.148,2066.1 -119.573,1932.53 -358.177,1846.17C-379.128,1838.83 -403.766,1847.63 -413.161,1865.8C-422.557,1883.97 -413.175,1904.69 -392.224,1912.03Z" style="fill:rgb(4,42,3);"/>
                            </g>
                            <g transform="matrix(0.3276,-0.0277478,-0.00800568,0.453093,-71.5742,-1141.84)">
                                <path d="M-93.194,1861.06C-90.867,1845.45 -75.072,1835.7 -57.945,1839.3C-40.817,1842.9 -28.801,1858.5 -31.128,1874.11C-31.128,1874.11 -46.051,1971.76 44.709,2102.23C85.253,2160.51 146.189,2224.9 237.458,2290.24C418.72,2419.99 530.701,2533.3 576.36,2692.52C611.858,2816.3 607.017,2968.32 561.782,3178.89C561.203,3181.83 558.098,3183.57 554.852,3182.76C551.607,3181.95 549.443,3178.9 550.022,3175.95C587.203,2967.66 587.771,2818.15 548.943,2697.48C500.347,2546.46 389.183,2441.93 212.58,2322.86C86.292,2237.72 12.357,2152.23 -31.328,2079.2C-106.838,1952.98 -93.196,1861.08 -93.194,1861.06ZM-93.194,1861.06C-93.194,1861.06 -93.194,1861.06 -93.194,1861.06L-93.194,1861.06Z" style="fill:rgb(4,42,3);"/>
                            </g>
                            <g transform="matrix(0.287022,-0.426616,0.23989,0.267877,-846.546,-1056.88)">
                                <path d="M-84.923,1860.87C-82.331,1843.48 -70.028,1832.38 -57.465,1836.08C-44.903,1839.79 -36.808,1856.91 -39.399,1874.3C-39.399,1874.3 -50.698,1956.63 21.049,2072.48C61.519,2137.82 126.789,2212.24 231.483,2288.5C437.687,2438.7 507.333,2428.88 574.11,2467.11C610.294,2487.83 645.763,2522.03 700.649,2602.02C702.374,2604.44 702.367,2608.33 700.632,2610.7C698.898,2613.08 696.089,2613.04 694.364,2610.62C639.207,2536.18 604.248,2504.55 568.748,2486.41C500.39,2451.47 430.545,2464.9 218.554,2324.6C106.396,2250.37 36.018,2175.19 -8.387,2108.82C-102.26,1968.51 -84.926,1860.89 -84.923,1860.87ZM-84.923,1860.87C-84.923,1860.87 -84.923,1860.87 -84.923,1860.87L-84.923,1860.87Z" style="fill:rgb(4,42,3);"/>
                            </g>
                            <g transform="matrix(0.0892,-0.299785,0.361572,0.178564,-625.129,-581.586)">
                                <path d="M-102.772,1864.97C-100.606,1850.44 -80.651,1839.82 -58.237,1841.26C-35.824,1842.7 -19.385,1855.67 -21.55,1870.19C-21.55,1870.19 -37.147,1966.22 48.147,2095.18C88.448,2156.12 150.859,2224.2 247.317,2293.07C457.513,2443.15 749.065,2559.13 920.433,2774.22C1007.69,2883.74 1064.17,3018.8 1062.67,3197.04C1062.71,3199.83 1059.25,3202.1 1054.95,3202.11C1050.66,3202.13 1047.14,3199.88 1047.11,3197.1C1041.22,3022.13 980.805,2890.47 890.658,2784.49C711.894,2574.34 417.249,2465.08 202.721,2320.03C97.407,2248.83 28.423,2177.74 -17.011,2113.89C-117.777,1972.3 -102.775,1864.99 -102.772,1864.97ZM-102.772,1864.97C-102.772,1864.97 -102.772,1864.97 -102.772,1864.97Z" style="fill:rgb(4,42,3);"/>
                            </g>
                            <g transform="matrix(0.145307,0.113046,-0.141495,0.301869,613.209,-627.643)">
                                <path d="M-647.22,1936.39C-647.22,1936.39 -42.91,1952.4 381.508,2112.53C582.082,2188.21 742.539,2296.25 774.071,2451.75C792.58,2543.03 767.721,2632.82 748.28,2719.1C726.267,2816.8 711.11,2910.11 765.569,2996.35C820.485,3083.31 945.832,3163.81 1210.08,3233.39C1215.87,3234.97 1222.68,3233.36 1225.28,3229.78C1227.88,3226.21 1225.3,3222.01 1219.51,3220.43C970.161,3149.34 851.949,3071.63 803.434,2987.55C755.637,2904.72 775.779,2816.36 801.102,2723.96C825.532,2634.82 854.844,2542.1 840.165,2447.07C813.722,2275.87 644.868,2153.57 428.88,2066.57C-7.619,1890.76 -639.549,1862.18 -639.549,1862.18C-672.76,1860.98 -701.442,1876.62 -703.558,1897.11C-705.675,1917.59 -680.431,1935.19 -647.22,1936.39Z" style="fill:rgb(4,42,3);"/>
                            </g>
                        </g>
                        <g>
                            <g transform="matrix(-0.264345,-0.176855,0.127837,-0.317143,170.434,615.645)">
                                <path d="M1306.48,2252.88C1306.48,2252.88 1177.6,2394.67 1196.32,2674.89C1208.94,2863.92 1296.1,3053.02 1296.1,3053.02C1296.1,3053.02 1441.34,2801.22 1433.27,2647.6C1419.06,2376.84 1306.48,2252.88 1306.48,2252.88Z" style="fill:rgb(4,42,3);"/>
                            </g>
                            <g transform="matrix(-0.264345,-0.176855,0.127837,-0.317143,289.437,565.558)">
                                <path d="M1306.48,2252.88C1306.48,2252.88 1177.6,2394.67 1196.32,2674.89C1208.94,2863.92 1296.1,3053.02 1296.1,3053.02C1296.1,3053.02 1441.34,2801.22 1433.27,2647.6C1419.06,2376.84 1306.48,2252.88 1306.48,2252.88Z" style="fill:rgb(4,42,3);"/>
                            </g>
                            <g transform="matrix(-0.211214,-0.141309,0.0999712,-0.248012,407.978,288.109)">
                                <path d="M1306.48,2252.88C1306.48,2252.88 1177.6,2394.67 1196.32,2674.89C1208.94,2863.92 1296.1,3053.02 1296.1,3053.02C1296.1,3053.02 1441.34,2801.22 1433.27,2647.6C1419.06,2376.84 1306.48,2252.88 1306.48,2252.88Z" style="fill:rgb(4,42,3);"/>
                            </g>
                            <g transform="matrix(-0.179698,-0.182334,0.122313,-0.200074,408.609,205.545)">
                                <path d="M1306.48,2252.88C1306.48,2252.88 1177.6,2394.67 1196.32,2674.89C1208.94,2863.92 1296.1,3053.02 1296.1,3053.02C1296.1,3053.02 1441.34,2801.22 1433.27,2647.6C1419.06,2376.84 1306.48,2252.88 1306.48,2252.88Z" style="fill:rgb(4,42,3);"/>
                            </g>
                            <g transform="matrix(-0.145536,-0.211613,0.137417,-0.150785,414.117,140.005)">
                                <path d="M1306.48,2252.88C1306.48,2252.88 1177.6,2394.67 1196.32,2674.89C1208.94,2863.92 1296.1,3053.02 1296.1,3053.02C1296.1,3053.02 1441.34,2801.22 1433.27,2647.6C1419.06,2376.84 1306.48,2252.88 1306.48,2252.88Z" style="fill:rgb(4,42,3);"/>
                            </g>
                            <g transform="matrix(-0.0264585,-0.267802,0.165388,-0.0150829,256.16,-66.7144)">
                                <path d="M1306.48,2252.88C1306.48,2252.88 1177.6,2394.67 1196.32,2674.89C1208.94,2863.92 1296.1,3053.02 1296.1,3053.02C1296.1,3053.02 1441.34,2801.22 1433.27,2647.6C1419.06,2376.84 1306.48,2252.88 1306.48,2252.88Z" style="fill:rgb(4,42,3);"/>
                            </g>
                            <g transform="matrix(0.153156,-0.184248,0.106208,0.164028,82.1621,-600.224)">
                                <path d="M1306.48,2252.88C1306.48,2252.88 1177.6,2394.67 1196.32,2674.89C1208.94,2863.92 1296.1,3053.02 1296.1,3053.02C1296.1,3053.02 1441.34,2801.22 1433.27,2647.6C1419.06,2376.84 1306.48,2252.88 1306.48,2252.88Z" style="fill:rgb(4,42,3);"/>
                            </g>
                            <g transform="matrix(0.197187,-0.211696,0.114089,0.19791,-87.1075,-643.629)">
                                <path d="M1306.48,2252.88C1306.48,2252.88 1177.6,2394.67 1196.32,2674.89C1208.94,2863.92 1296.1,3053.02 1296.1,3053.02C1296.1,3053.02 1441.34,2801.22 1433.27,2647.6C1419.06,2376.84 1306.48,2252.88 1306.48,2252.88Z" style="fill:rgb(4,42,3);"/>
                            </g>
                            <g transform="matrix(0.151901,-0.354651,0.186369,0.152839,-303.417,-307.116)">
                                <path d="M1306.48,2252.88C1306.48,2252.88 1177.6,2394.67 1196.32,2674.89C1208.94,2863.92 1296.1,3053.02 1296.1,3053.02C1296.1,3053.02 1441.34,2801.22 1433.27,2647.6C1419.06,2376.84 1306.48,2252.88 1306.48,2252.88Z" style="fill:rgb(4,42,3);"/>
                            </g>
                            <g transform="matrix(0.374529,-0.1741,0.0774321,0.342224,-561.915,-865.58)">
                                <path d="M1306.48,2252.88C1306.48,2252.88 1177.6,2394.67 1196.32,2674.89C1208.94,2863.92 1296.1,3053.02 1296.1,3053.02C1296.1,3053.02 1441.34,2801.22 1433.27,2647.6C1419.06,2376.84 1306.48,2252.88 1306.48,2252.88Z" style="fill:rgb(4,42,3);"/>
                            </g>
                            <g transform="matrix(-0.26713,-0.54755,0.294126,-0.238164,-340.733,870.212)">
                                <path d="M1306.48,2252.88C1306.48,2252.88 1177.6,2394.67 1196.32,2674.89C1208.94,2863.92 1296.1,3053.02 1296.1,3053.02C1296.1,3053.02 1441.34,2801.22 1433.27,2647.6C1419.06,2376.84 1306.48,2252.88 1306.48,2252.88Z" style="fill:rgb(4,42,3);"/>
                            </g>
                            <g transform="matrix(-0.26713,-0.54755,0.294126,-0.238164,-491.086,792.677)">
                                <path d="M1306.48,2252.88C1306.48,2252.88 1177.6,2394.67 1196.32,2674.89C1208.94,2863.92 1296.1,3053.02 1296.1,3053.02C1296.1,3053.02 1441.34,2801.22 1433.27,2647.6C1419.06,2376.84 1306.48,2252.88 1306.48,2252.88Z" style="fill:rgb(4,42,3);"/>
                            </g>
                            <g transform="matrix(-0.0889953,-0.636477,0.341895,-0.0793453,-994.414,428.278)">
                                <path d="M1306.48,2252.88C1306.48,2252.88 1177.6,2394.67 1196.32,2674.89C1208.94,2863.92 1296.1,3053.02 1296.1,3053.02C1296.1,3053.02 1441.34,2801.22 1433.27,2647.6C1419.06,2376.84 1306.48,2252.88 1306.48,2252.88Z" style="fill:rgb(4,42,3);"/>
                            </g>
                            <g transform="matrix(0.467132,-0.236788,0.127195,0.41648,-1264.76,-1203.97)">
                                <path d="M1306.48,2252.88C1306.48,2252.88 1177.6,2394.67 1196.32,2674.89C1208.94,2863.92 1296.1,3053.02 1296.1,3053.02C1296.1,3053.02 1441.34,2801.22 1433.27,2647.6C1419.06,2376.84 1306.48,2252.88 1306.48,2252.88Z" style="fill:rgb(4,42,3);"/>
                            </g>
                            <g transform="matrix(0.486282,-0.160519,0.0862255,0.433553,-1029.42,-1225)">
                                <path d="M1306.48,2252.88C1306.48,2252.88 1177.6,2394.67 1196.32,2674.89C1208.94,2863.92 1296.1,3053.02 1296.1,3053.02C1296.1,3053.02 1441.34,2801.22 1433.27,2647.6C1419.06,2376.84 1306.48,2252.88 1306.48,2252.88Z" style="fill:rgb(4,42,3);"/>
                            </g>
                            <g transform="matrix(0.483211,-0.221199,0.106428,0.385883,-913.084,-959.438)">
                                <path d="M1306.48,2252.88C1306.48,2252.88 1177.6,2394.67 1196.32,2674.89C1208.94,2863.92 1296.1,3053.02 1296.1,3053.02C1296.1,3053.02 1441.34,2801.22 1433.27,2647.6C1419.06,2376.84 1306.48,2252.88 1306.48,2252.88Z" style="fill:rgb(4,42,3);"/>
                            </g>
                            <g transform="matrix(-0.315862,-0.347831,0.151375,-0.237559,-334.007,373.309)">
                                <path d="M1306.48,2252.88C1306.48,2252.88 1177.6,2394.67 1196.32,2674.89C1208.94,2863.92 1296.1,3053.02 1296.1,3053.02C1296.1,3053.02 1441.34,2801.22 1433.27,2647.6C1419.06,2376.84 1306.48,2252.88 1306.48,2252.88Z" style="fill:rgb(4,42,3);"/>
                            </g>
                            <g transform="matrix(-0.287744,-0.183438,0.092806,-0.210653,-95.0699,59.839)">
                                <path d="M1306.48,2252.88C1306.48,2252.88 1177.6,2394.67 1196.32,2674.89C1208.94,2863.92 1296.1,3053.02 1296.1,3053.02C1296.1,3053.02 1441.34,2801.22 1433.27,2647.6C1419.06,2376.84 1306.48,2252.88 1306.48,2252.88Z" style="fill:rgb(4,42,3);"/>
                            </g>
                            <g transform="matrix(-0.0444086,-0.268482,0.145785,-0.0142082,-424.699,-333.483)">
                                <path d="M1306.48,2252.88C1306.48,2252.88 1177.6,2394.67 1196.32,2674.89C1208.94,2863.92 1296.1,3053.02 1296.1,3053.02C1296.1,3053.02 1441.34,2801.22 1433.27,2647.6C1419.06,2376.84 1306.48,2252.88 1306.48,2252.88Z" style="fill:rgb(4,42,3);"/>
                            </g>
                            <g transform="matrix(0.259158,-0.154817,0.0972902,0.243809,-882.673,-636.914)">
                                <path d="M1306.48,2252.88C1306.48,2252.88 1177.6,2394.67 1196.32,2674.89C1208.94,2863.92 1296.1,3053.02 1296.1,3053.02C1296.1,3053.02 1441.34,2801.22 1433.27,2647.6C1419.06,2376.84 1306.48,2252.88 1306.48,2252.88Z" style="fill:rgb(4,42,3);"/>
                            </g>
                            <g transform="matrix(0.183925,0.509521,-0.254669,0.131501,13.6724,-1264.61)">
                                <path d="M1306.48,2252.88C1306.48,2252.88 1177.6,2394.67 1196.32,2674.89C1208.94,2863.92 1296.1,3053.02 1296.1,3053.02C1296.1,3053.02 1441.34,2801.22 1433.27,2647.6C1419.06,2376.84 1306.48,2252.88 1306.48,2252.88Z" style="fill:rgb(4,42,3);"/>
                            </g>
                            <g transform="matrix(0.195323,0.373079,-0.236852,0.231575,-93.7306,-1159.97)">
                                <path d="M1306.48,2252.88C1306.48,2252.88 1177.6,2394.67 1196.32,2674.89C1208.94,2863.92 1296.1,3053.02 1296.1,3053.02C1296.1,3053.02 1441.34,2801.22 1433.27,2647.6C1419.06,2376.84 1306.48,2252.88 1306.48,2252.88Z" style="fill:rgb(4,42,3);"/>
                            </g>
                            <g transform="matrix(0.206949,0.153346,-0.0990106,0.240417,-423.974,-790.594)">
                                <path d="M1306.48,2252.88C1306.48,2252.88 1177.6,2394.67 1196.32,2674.89C1208.94,2863.92 1296.1,3053.02 1296.1,3053.02C1296.1,3053.02 1441.34,2801.22 1433.27,2647.6C1419.06,2376.84 1306.48,2252.88 1306.48,2252.88Z" style="fill:rgb(4,42,3);"/>
                            </g>
                            <g transform="matrix(0.165522,0.0116571,-0.00948691,0.190024,-553.748,-373.55)">
                                <path d="M1306.48,2252.88C1306.48,2252.88 1177.6,2394.67 1196.32,2674.89C1208.94,2863.92 1296.1,3053.02 1296.1,3053.02C1296.1,3053.02 1441.34,2801.22 1433.27,2647.6C1419.06,2376.84 1306.48,2252.88 1306.48,2252.88Z" style="fill:rgb(4,42,3);"/>
                            </g>
                            <g transform="matrix(0.157279,-0.034426,0.0155087,0.158687,-564.029,-158.584)">
                                <path d="M1306.48,2252.88C1306.48,2252.88 1177.6,2394.67 1196.32,2674.89C1208.94,2863.92 1296.1,3053.02 1296.1,3053.02C1296.1,3053.02 1441.34,2801.22 1433.27,2647.6C1419.06,2376.84 1306.48,2252.88 1306.48,2252.88Z" style="fill:rgb(4,42,3);"/>
                            </g>
                            <g transform="matrix(0.143596,-0.0701066,0.0350033,0.126288,-542.646,21.2955)">
                                <path d="M1306.48,2252.88C1306.48,2252.88 1177.6,2394.67 1196.32,2674.89C1208.94,2863.92 1296.1,3053.02 1296.1,3053.02C1296.1,3053.02 1441.34,2801.22 1433.27,2647.6C1419.06,2376.84 1306.48,2252.88 1306.48,2252.88Z" style="fill:rgb(4,42,3);"/>
                            </g>
                            <g transform="matrix(0.0956267,-0.142838,0.0701027,0.0691726,-516.187,273.934)">
                                <path d="M1306.48,2252.88C1306.48,2252.88 1177.6,2394.67 1196.32,2674.89C1208.94,2863.92 1296.1,3053.02 1296.1,3053.02C1296.1,3053.02 1441.34,2801.22 1433.27,2647.6C1419.06,2376.84 1306.48,2252.88 1306.48,2252.88Z" style="fill:rgb(4,42,3);"/>
                            </g>
                            <g transform="matrix(-0.0657872,-0.239597,0.107651,-0.0490592,-403.468,654.936)">
                                <path d="M1306.48,2252.88C1306.48,2252.88 1177.6,2394.67 1196.32,2674.89C1208.94,2863.92 1296.1,3053.02 1296.1,3053.02C1296.1,3053.02 1441.34,2801.22 1433.27,2647.6C1419.06,2376.84 1306.48,2252.88 1306.48,2252.88Z" style="fill:rgb(4,42,3);"/>
                            </g>
                            <g transform="matrix(0.196775,-0.0179835,0.0129134,0.23452,-367.572,-771.212)">
                                <path d="M1306.48,2252.88C1306.48,2252.88 1177.6,2394.67 1196.32,2674.89C1208.94,2863.92 1296.1,3053.02 1296.1,3053.02C1296.1,3053.02 1441.34,2801.22 1433.27,2647.6C1419.06,2376.84 1306.48,2252.88 1306.48,2252.88Z" style="fill:rgb(4,42,3);"/>
                            </g>
                            <g transform="matrix(0.0231515,-0.396217,0.186025,0.0180411,-562.091,148.297)">
                                <path d="M1306.48,2252.88C1306.48,2252.88 1177.6,2394.67 1196.32,2674.89C1208.94,2863.92 1296.1,3053.02 1296.1,3053.02C1296.1,3053.02 1441.34,2801.22 1433.27,2647.6C1419.06,2376.84 1306.48,2252.88 1306.48,2252.88Z" style="fill:rgb(4,42,3);"/>
                            </g>
                            <g transform="matrix(0.138227,-0.307049,0.17014,0.127126,-508.541,11.6965)">
                                <path d="M1306.48,2252.88C1306.48,2252.88 1177.6,2394.67 1196.32,2674.89C1208.94,2863.92 1296.1,3053.02 1296.1,3053.02C1296.1,3053.02 1441.34,2801.22 1433.27,2647.6C1419.06,2376.84 1306.48,2252.88 1306.48,2252.88Z" style="fill:rgb(4,42,3);"/>
                            </g>
                            <g transform="matrix(0.202604,0.181833,-0.0951264,0.175922,13.2104,-708.272)">
                                <path d="M1306.48,2252.88C1306.48,2252.88 1177.6,2394.67 1196.32,2674.89C1208.94,2863.92 1296.1,3053.02 1296.1,3053.02C1296.1,3053.02 1441.34,2801.22 1433.27,2647.6C1419.06,2376.84 1306.48,2252.88 1306.48,2252.88Z" style="fill:rgb(4,42,3);"/>
                            </g>
                            <g transform="matrix(0.116869,0.175877,-0.0993923,0.111743,141.869,-450.103)">
                                <path d="M1306.48,2252.88C1306.48,2252.88 1177.6,2394.67 1196.32,2674.89C1208.94,2863.92 1296.1,3053.02 1296.1,3053.02C1296.1,3053.02 1441.34,2801.22 1433.27,2647.6C1419.06,2376.84 1306.48,2252.88 1306.48,2252.88Z" style="fill:rgb(4,42,3);"/>
                            </g>
                            <g transform="matrix(0.0553183,0.154245,-0.0915704,0.0631587,202.718,-228.785)">
                                <path d="M1306.48,2252.88C1306.48,2252.88 1177.6,2394.67 1196.32,2674.89C1208.94,2863.92 1296.1,3053.02 1296.1,3053.02C1296.1,3053.02 1441.34,2801.22 1433.27,2647.6C1419.06,2376.84 1306.48,2252.88 1306.48,2252.88Z" style="fill:rgb(4,42,3);"/>
                            </g>
                            <g transform="matrix(0.0878758,0.0577942,-0.0266547,0.0981285,6.77764,-135.326)">
                                <path d="M1306.48,2252.88C1306.48,2252.88 1177.6,2394.67 1196.32,2674.89C1208.94,2863.92 1296.1,3053.02 1296.1,3053.02C1296.1,3053.02 1441.34,2801.22 1433.27,2647.6C1419.06,2376.84 1306.48,2252.88 1306.48,2252.88Z" style="fill:rgb(4,42,3);"/>
                            </g>
                            <g transform="matrix(0.108587,-0.0344377,0.0270736,0.0949115,-134.157,-44.6886)">
                                <path d="M1306.48,2252.88C1306.48,2252.88 1177.6,2394.67 1196.32,2674.89C1208.94,2863.92 1296.1,3053.02 1296.1,3053.02C1296.1,3053.02 1441.34,2801.22 1433.27,2647.6C1419.06,2376.84 1306.48,2252.88 1306.48,2252.88Z" style="fill:rgb(4,42,3);"/>
                            </g>
                            <g transform="matrix(0.0973321,-0.18274,0.0885537,0.0782842,-251.224,84.5308)">
                                <path d="M1306.48,2252.88C1306.48,2252.88 1177.6,2394.67 1196.32,2674.89C1208.94,2863.92 1296.1,3053.02 1296.1,3053.02C1296.1,3053.02 1441.34,2801.22 1433.27,2647.6C1419.06,2376.84 1306.48,2252.88 1306.48,2252.88Z" style="fill:rgb(4,42,3);"/>
                            </g>
                            <g transform="matrix(0.0917807,-0.200131,0.102616,0.0629731,-279.453,87.525)">
                                <path d="M1306.48,2252.88C1306.48,2252.88 1177.6,2394.67 1196.32,2674.89C1208.94,2863.92 1296.1,3053.02 1296.1,3053.02C1296.1,3053.02 1441.34,2801.22 1433.27,2647.6C1419.06,2376.84 1306.48,2252.88 1306.48,2252.88Z" style="fill:rgb(4,42,3);"/>
                            </g>
                            <g transform="matrix(0.262756,0.00909851,0.0112155,0.231879,-122.191,-763.185)">
                                <path d="M1306.48,2252.88C1306.48,2252.88 1177.6,2394.67 1196.32,2674.89C1208.94,2863.92 1296.1,3053.02 1296.1,3053.02C1296.1,3053.02 1441.34,2801.22 1433.27,2647.6C1419.06,2376.84 1306.48,2252.88 1306.48,2252.88Z" style="fill:rgb(4,42,3);"/>
                            </g>
                            <g transform="matrix(0.244564,0.180708,-0.0822841,0.184831,199.026,-765.736)">
                                <path d="M1306.48,2252.88C1306.48,2252.88 1177.6,2394.67 1196.32,2674.89C1208.94,2863.92 1296.1,3053.02 1296.1,3053.02C1296.1,3053.02 1441.34,2801.22 1433.27,2647.6C1419.06,2376.84 1306.48,2252.88 1306.48,2252.88Z" style="fill:rgb(4,42,3);"/>
                            </g>
                            <g transform="matrix(0.176284,0.283459,-0.129071,0.133228,427.65,-658.012)">
                                <path d="M1306.48,2252.88C1306.48,2252.88 1177.6,2394.67 1196.32,2674.89C1208.94,2863.92 1296.1,3053.02 1296.1,3053.02C1296.1,3053.02 1441.34,2801.22 1433.27,2647.6C1419.06,2376.84 1306.48,2252.88 1306.48,2252.88Z" style="fill:rgb(4,42,3);"/>
                            </g>
                            <g transform="matrix(0.0706688,0.293391,-0.129348,0.0517114,520.667,-348.757)">
                                <path d="M1306.48,2252.88C1306.48,2252.88 1177.6,2394.67 1196.32,2674.89C1208.94,2863.92 1296.1,3053.02 1296.1,3053.02C1296.1,3053.02 1441.34,2801.22 1433.27,2647.6C1419.06,2376.84 1306.48,2252.88 1306.48,2252.88Z" style="fill:rgb(4,42,3);"/>
                            </g>
                            <g transform="matrix(0.161796,0.153252,-0.0679439,0.113729,225.179,-222.695)">
                                <path d="M1306.48,2252.88C1306.48,2252.88 1177.6,2394.67 1196.32,2674.89C1208.94,2863.92 1296.1,3053.02 1296.1,3053.02C1296.1,3053.02 1441.34,2801.22 1433.27,2647.6C1419.06,2376.84 1306.48,2252.88 1306.48,2252.88Z" style="fill:rgb(4,42,3);"/>
                            </g>
                            <g transform="matrix(0.169464,0.00368227,-0.0021351,0.117708,73.0391,42.4221)">
                                <path d="M1306.48,2252.88C1306.48,2252.88 1177.6,2394.67 1196.32,2674.89C1208.94,2863.92 1296.1,3053.02 1296.1,3053.02C1296.1,3053.02 1441.34,2801.22 1433.27,2647.6C1419.06,2376.84 1306.48,2252.88 1306.48,2252.88Z" style="fill:rgb(4,42,3);"/>
                            </g>
                            <g transform="matrix(0.113239,-0.227187,0.101567,0.079428,-98.1908,391.175)">
                                <path d="M1306.48,2252.88C1306.48,2252.88 1177.6,2394.67 1196.32,2674.89C1208.94,2863.92 1296.1,3053.02 1296.1,3053.02C1296.1,3053.02 1441.34,2801.22 1433.27,2647.6C1419.06,2376.84 1306.48,2252.88 1306.48,2252.88Z" style="fill:rgb(4,42,3);"/>
                            </g>
                            <g transform="matrix(0.199729,-0.0974853,0.0409688,0.129351,-46.1399,15.4214)">
                                <path d="M1306.48,2252.88C1306.48,2252.88 1177.6,2394.67 1196.32,2674.89C1208.94,2863.92 1296.1,3053.02 1296.1,3053.02C1296.1,3053.02 1441.34,2801.22 1433.27,2647.6C1419.06,2376.84 1306.48,2252.88 1306.48,2252.88Z" style="fill:rgb(4,42,3);"/>
                            </g>
                            <g transform="matrix(0.199729,-0.0974853,0.0409688,0.129351,-5.71651,-55.3471)">
                                <path d="M1306.48,2252.88C1306.48,2252.88 1177.6,2394.67 1196.32,2674.89C1208.94,2863.92 1296.1,3053.02 1296.1,3053.02C1296.1,3053.02 1441.34,2801.22 1433.27,2647.6C1419.06,2376.84 1306.48,2252.88 1306.48,2252.88Z" style="fill:rgb(4,42,3);"/>
                            </g>
                            <g transform="matrix(0.20561,-0.236703,0.103907,0.142395,-128.738,-0.343456)">
                                <path d="M1306.48,2252.88C1306.48,2252.88 1177.6,2394.67 1196.32,2674.89C1208.94,2863.92 1296.1,3053.02 1296.1,3053.02C1296.1,3053.02 1441.34,2801.22 1433.27,2647.6C1419.06,2376.84 1306.48,2252.88 1306.48,2252.88Z" style="fill:rgb(4,42,3);"/>
                            </g>
                            <g transform="matrix(0.094193,-0.447249,0.20106,0.0782914,-245.144,283.682)">
                                <path d="M1306.48,2252.88C1306.48,2252.88 1177.6,2394.67 1196.32,2674.89C1208.94,2863.92 1296.1,3053.02 1296.1,3053.02C1296.1,3053.02 1441.34,2801.22 1433.27,2647.6C1419.06,2376.84 1306.48,2252.88 1306.48,2252.88Z" style="fill:rgb(4,42,3);"/>
                            </g>
                            <g transform="matrix(-0.155285,-0.598397,0.273527,-0.077589,-118.591,758.053)">
                                <path d="M1306.48,2252.88C1306.48,2252.88 1177.6,2394.67 1196.32,2674.89C1208.94,2863.92 1296.1,3053.02 1296.1,3053.02C1296.1,3053.02 1441.34,2801.22 1433.27,2647.6C1419.06,2376.84 1306.48,2252.88 1306.48,2252.88Z" style="fill:rgb(4,42,3);"/>
                            </g>
                            <g transform="matrix(0.0268678,-0.403685,0.178236,0.0485494,19.4842,389.843)">
                                <path d="M1306.48,2252.88C1306.48,2252.88 1177.6,2394.67 1196.32,2674.89C1208.94,2863.92 1296.1,3053.02 1296.1,3053.02C1296.1,3053.02 1441.34,2801.22 1433.27,2647.6C1419.06,2376.84 1306.48,2252.88 1306.48,2252.88Z" style="fill:rgb(4,42,3);"/>
                            </g>
                            <g transform="matrix(0.40395,0.0604806,-0.047955,0.252025,41.73,-660.725)">
                                <path d="M1306.48,2252.88C1306.48,2252.88 1177.6,2394.67 1196.32,2674.89C1208.94,2863.92 1296.1,3053.02 1296.1,3053.02C1296.1,3053.02 1441.34,2801.22 1433.27,2647.6C1419.06,2376.84 1306.48,2252.88 1306.48,2252.88Z" style="fill:rgb(4,42,3);"/>
                            </g>
                            <g transform="matrix(0.293587,0.127639,-0.0560784,0.214089,253.672,-561.297)">
                                <path d="M1306.48,2252.88C1306.48,2252.88 1177.6,2394.67 1196.32,2674.89C1208.94,2863.92 1296.1,3053.02 1296.1,3053.02C1296.1,3053.02 1441.34,2801.22 1433.27,2647.6C1419.06,2376.84 1306.48,2252.88 1306.48,2252.88Z" style="fill:rgb(4,42,3);"/>
                            </g>
                            <g transform="matrix(0.23149,0.0954142,-0.0228428,0.193331,288.185,-367.116)">
                                <path d="M1314.2,2175.7C1314.2,2175.7 1183.32,2445.15 1202.04,2725.36C1214.66,2914.4 1264.33,3131.87 1264.33,3131.87C1264.33,3131.87 1425.56,2929.6 1433.27,2647.6C1440.85,2370.67 1314.2,2175.7 1314.2,2175.7Z" style="fill:rgb(4,42,3);"/>
                            </g>
                            <g transform="matrix(0.185666,-0.0527467,0.0276608,0.161602,259.187,-32.8329)">
                                <path d="M1306.48,2252.88C1306.48,2252.88 1177.6,2394.67 1196.32,2674.89C1208.94,2863.92 1296.1,3053.02 1296.1,3053.02C1296.1,3053.02 1441.34,2801.22 1433.27,2647.6C1419.06,2376.84 1306.48,2252.88 1306.48,2252.88Z" style="fill:rgb(4,42,3);"/>
                            </g>
                            <g transform="matrix(0.0820269,-0.220974,0.115881,0.0713954,186.739,349.041)">
                                <path d="M1306.48,2252.88C1306.48,2252.88 1177.6,2394.67 1196.32,2674.89C1208.94,2863.92 1296.1,3053.02 1296.1,3053.02C1296.1,3053.02 1441.34,2801.22 1433.27,2647.6C1419.06,2376.84 1306.48,2252.88 1306.48,2252.88Z" style="fill:rgb(4,42,3);"/>
                            </g>
                            <g transform="matrix(0.0758908,-0.364011,0.147503,0.0510408,96.1122,498.395)">
                                <path d="M1306.48,2252.88C1306.48,2252.88 1177.6,2394.67 1196.32,2674.89C1208.94,2863.92 1296.1,3053.02 1296.1,3053.02C1296.1,3053.02 1441.34,2801.22 1433.27,2647.6C1419.06,2376.84 1306.48,2252.88 1306.48,2252.88Z" style="fill:rgb(4,42,3);"/>
                            </g>
                            <g transform="matrix(0.0364212,-0.389705,0.158904,0.0246488,98.4886,518.975)">
                                <path d="M1306.48,2252.88C1306.48,2252.88 1177.6,2394.67 1196.32,2674.89C1208.94,2863.92 1296.1,3053.02 1296.1,3053.02C1296.1,3053.02 1441.34,2801.22 1433.27,2647.6C1419.06,2376.84 1306.48,2252.88 1306.48,2252.88Z" style="fill:rgb(4,42,3);"/>
                            </g>
                            <g transform="matrix(0.103689,-0.0833521,0.0417802,0.0862643,-153.984,-19.5632)">
                                <path d="M1306.48,2252.88C1306.48,2252.88 1177.6,2394.67 1196.32,2674.89C1208.94,2863.92 1296.1,3053.02 1296.1,3053.02C1296.1,3053.02 1441.34,2801.22 1433.27,2647.6C1419.06,2376.84 1306.48,2252.88 1306.48,2252.88Z" style="fill:rgb(4,42,3);"/>
                            </g>
                            <g transform="matrix(-0.0304107,-0.272253,0.117783,-0.0317035,-541.529,588.079)">
                                <path d="M1306.48,2252.88C1306.48,2252.88 1177.6,2394.67 1196.32,2674.89C1208.94,2863.92 1296.1,3053.02 1296.1,3053.02C1296.1,3053.02 1441.34,2801.22 1433.27,2647.6C1419.06,2376.84 1306.48,2252.88 1306.48,2252.88Z" style="fill:rgb(4,42,3);"/>
                            </g>
                            <g transform="matrix(0.0108451,-0.300559,0.12548,-0.0109169,-650.758,490.215)">
                                <path d="M1306.48,2252.88C1306.48,2252.88 1177.6,2394.67 1196.32,2674.89C1208.94,2863.92 1296.1,3053.02 1296.1,3053.02C1296.1,3053.02 1441.34,2801.22 1433.27,2647.6C1419.06,2376.84 1306.48,2252.88 1306.48,2252.88Z" style="fill:rgb(4,42,3);"/>
                            </g>
                            <g transform="matrix(0.16507,-0.254117,0.143188,0.112976,-912.049,22.7517)">
                                <path d="M1306.48,2252.88C1306.48,2252.88 1177.6,2394.67 1196.32,2674.89C1208.94,2863.92 1296.1,3053.02 1296.1,3053.02C1296.1,3053.02 1441.34,2801.22 1433.27,2647.6C1419.06,2376.84 1306.48,2252.88 1306.48,2252.88Z" style="fill:rgb(4,42,3);"/>
                            </g>
                            <g transform="matrix(0.210875,-0.262826,0.11362,0.151306,-895.581,-164.483)">
                                <path d="M1306.48,2252.88C1306.48,2252.88 1177.6,2394.67 1196.32,2674.89C1208.94,2863.92 1296.1,3053.02 1296.1,3053.02C1296.1,3053.02 1441.34,2801.22 1433.27,2647.6C1419.06,2376.84 1306.48,2252.88 1306.48,2252.88Z" style="fill:rgb(4,42,3);"/>
                            </g>
                            <g transform="matrix(0.178819,-0.435867,0.223092,0.162288,-543.935,-143.922)">
                                <path d="M1306.48,2252.88C1306.48,2252.88 1177.6,2394.67 1196.32,2674.89C1208.94,2863.92 1296.1,3053.02 1296.1,3053.02C1296.1,3053.02 1441.34,2801.22 1433.27,2647.6C1419.06,2376.84 1306.48,2252.88 1306.48,2252.88Z" style="fill:rgb(4,42,3);"/>
                            </g>
                        </g>
                    </g>
                    <g transform="matrix(0.875731,0.621999,-0.374753,0.875731,-442.709,257.792)">
                        <g transform="matrix(1,0,0,1,-23.7774,-121.266)">
                            <g transform="matrix(1.42889,0,0,1.84086,-721.345,-4750.52)">
                                <path d="M130.183,2207.55C132.338,2210.35 135.078,2213.6 138.229,2216.74C154.605,2233.03 184.089,2256.63 235.234,2291.02C459.445,2441.78 654.368,2454.04 785.455,2563.86C844.178,2613.06 890.513,2681.35 920.918,2789.73C921.561,2791.89 920.324,2794.16 918.157,2794.82C915.991,2795.47 913.71,2794.26 913.067,2792.1C880.083,2687.89 833.334,2622.81 774.75,2576.93C639.89,2471.32 444.244,2465.62 214.803,2322.08C146.037,2279.06 113.133,2251.82 98.238,2235.04C79.638,2214.08 82.02,2199.7 84.649,2192.49C87.711,2184.08 94.296,2178.89 100.865,2176.03C106.662,2173.51 112.196,2173.36 112.205,2173.36C124.044,2172.79 134.059,2181.89 134.555,2193.68C134.773,2198.86 133.116,2203.7 130.183,2207.55ZM112.205,2173.36L112.205,2173.36L112.205,2173.36Z" style="fill:rgb(4,42,3);"/>
                            </g>
                            <g transform="matrix(0.0610322,-0.317361,0.229049,0.0731103,-557.494,-478.952)">
                                <path d="M-101.292,1877.16C-101.292,1877.16 -56.321,2072.03 67.608,2263.46C138.056,2372.27 233.698,2480.05 360.723,2550.68C594.969,2680.91 755.923,2834.72 871.776,2994.91C1028.32,3211.38 1103,3439.12 1164.76,3635.63C1166.05,3639.98 1170.38,3642.4 1174.4,3641.03C1178.43,3639.67 1180.65,3635.04 1179.35,3630.7C1122.45,3429.47 1052.9,3196.38 900.474,2971.74C785.887,2802.86 624.629,2639.05 387.219,2496.95C271.773,2427.86 186.534,2325.16 124.354,2222.55C14.077,2040.56 -23.03,1858.01 -23.03,1858.01C-28.108,1834.72 -49.764,1820.11 -71.362,1825.4C-92.959,1830.68 -106.37,1853.88 -101.292,1877.16Z" style="fill:rgb(4,42,3);"/>
                            </g>
                            <g transform="matrix(0.219553,0.143718,-0.121058,0.334648,-69.3603,-1044.64)">
                                <path d="M-392.138,1912.23C-176.386,1981.87 -11.682,2077.59 107.781,2185.18C268.38,2329.82 347.545,2495 359.577,2645.16C359.759,2648.9 363.442,2651.68 367.798,2651.37C372.153,2651.06 375.542,2647.77 375.36,2644.03C372.677,2488 301.128,2313.43 144.964,2155.98C27.491,2037.54 -137.944,1929.35 -358.263,1845.96C-379.12,1838.66 -403.643,1847.57 -412.991,1865.86C-422.339,1884.15 -412.995,1904.92 -392.138,1912.23Z" style="fill:rgb(4,42,3);"/>
                            </g>
                            <g transform="matrix(0.3276,-0.0277478,-0.00800568,0.453093,-71.5742,-1141.84)">
                                <path d="M-93.138,1861.31C-90.804,1845.65 -75.029,1835.75 -57.933,1839.22C-40.836,1842.68 -28.85,1858.2 -31.184,1873.86C-31.184,1873.86 -46.105,1971.71 44.948,2102.4C85.511,2160.62 146.408,2224.93 237.523,2290.17C418.172,2419.52 529.984,2532.53 575.897,2690.97C611.846,2815.03 607.154,2967.43 561.771,3178.84C561.19,3181.8 558.088,3183.56 554.849,3182.78C551.61,3181.99 549.452,3178.95 550.033,3176C587.377,2966.96 587.823,2817.14 548.559,2696.26C499.73,2545.94 388.664,2441.66 212.515,2322.93C86.527,2238.01 12.663,2152.75 -31.036,2079.86C-106.838,1953.44 -93.141,1861.33 -93.138,1861.31ZM-93.138,1861.31C-93.138,1861.31 -93.138,1861.31 -93.138,1861.31Z" style="fill:rgb(4,42,3);"/>
                            </g>
                            <g transform="matrix(0.287022,-0.426616,0.23989,0.267877,-846.546,-1056.88)">
                                <path d="M-85.043,1861.01C-82.462,1843.69 -70.114,1832.59 -57.485,1836.21C-44.856,1839.84 -36.698,1856.84 -39.279,1874.16C-39.279,1874.16 -50.278,1956.35 21.472,2071.49C62.031,2136.57 127.483,2210.61 232.446,2286.27C439.818,2435.74 629.242,2451.74 763.308,2542.79C835.581,2591.87 892.226,2662.05 927.363,2785.01C928.297,2788.14 927.208,2791.7 924.934,2792.97C922.659,2794.23 920.055,2792.72 919.122,2789.59C882.735,2672.69 826.956,2607.18 756.409,2562.82C619.742,2476.9 429.179,2468.42 217.592,2326.83C105.189,2251.61 34.822,2175.7 -9.439,2108.83C-102.524,1968.2 -85.047,1861.03 -85.043,1861.01ZM-85.043,1861.01C-85.043,1861.01 -85.043,1861.01 -85.043,1861.01L-85.043,1861.01Z" style="fill:rgb(4,42,3);"/>
                            </g>
                            <g transform="matrix(0.0892,-0.299785,0.361572,0.178564,-625.129,-581.586)">
                                <path d="M-102.95,1864.87C-102.95,1864.87 -117.893,1971.93 -17.458,2113.29C27.982,2177.25 97.047,2248.5 202.59,2319.87C417.492,2465.19 712.781,2574.6 891.472,2785.48C981.129,2891.3 1041.18,3022.68 1047.08,3197.07C1047.11,3199.84 1050.64,3202.09 1054.95,3202.09C1059.27,3202.09 1062.74,3199.84 1062.7,3197.07C1064.23,3019.45 1008.16,2884.74 921.435,2775.44C750.208,2559.65 458.004,2443.55 247.447,2293.23C150.799,2224.23 88.342,2156.03 48.06,2095.01C-36.981,1966.18 -21.372,1870.29 -21.372,1870.29C-19.217,1855.83 -35.744,1842.88 -58.256,1841.39C-80.768,1839.89 -100.795,1850.41 -102.95,1864.87Z" style="fill:rgb(4,42,3);"/>
                            </g>
                            <g transform="matrix(0.145307,0.113046,-0.141495,0.301869,613.209,-627.643)">
                                <path d="M-647.271,1936.58C-647.271,1936.58 -44.549,1952.5 379.891,2111.97C581.325,2187.66 742.698,2295.84 774.291,2451.82C792.825,2543.32 767.761,2633.32 748.278,2719.8C726.207,2817.77 711.2,2911.31 766.499,2997.73C821.82,3084.18 947.207,3164.23 1210.12,3233.43C1215.89,3235.01 1222.66,3233.37 1225.24,3229.77C1227.82,3226.17 1225.23,3221.97 1219.46,3220.39C971.299,3149.62 853.003,3072.31 804.03,2988.68C755.455,2905.74 775.433,2817.23 800.754,2724.66C825.201,2635.29 854.688,2542.31 839.945,2447C813.379,2275.27 643.594,2152.7 426.635,2065.63C-9.676,1890.54 -639.497,1862 -639.497,1862C-672.544,1860.8 -701.115,1876.54 -703.26,1897.12C-705.406,1917.7 -680.318,1935.38 -647.271,1936.58Z" style="fill:rgb(4,42,3);"/>
                            </g>
                        </g>
                        <g>
                            <g transform="matrix(-0.264345,-0.176855,0.127837,-0.317143,170.434,615.645)">
                                <path d="M1306.48,2252.88C1306.48,2252.88 1177.6,2394.67 1196.32,2674.89C1208.94,2863.92 1296.1,3053.02 1296.1,3053.02C1296.1,3053.02 1441.34,2801.22 1433.27,2647.6C1419.06,2376.84 1306.48,2252.88 1306.48,2252.88Z" style="fill:rgb(4,42,3);"/>
                            </g>
                            <g transform="matrix(-0.264345,-0.176855,0.127837,-0.317143,289.437,565.558)">
                                <path d="M1306.48,2252.88C1306.48,2252.88 1177.6,2394.67 1196.32,2674.89C1208.94,2863.92 1296.1,3053.02 1296.1,3053.02C1296.1,3053.02 1441.34,2801.22 1433.27,2647.6C1419.06,2376.84 1306.48,2252.88 1306.48,2252.88Z" style="fill:rgb(4,42,3);"/>
                            </g>
                            <g transform="matrix(-0.211214,-0.141309,0.0999712,-0.248012,407.978,288.109)">
                                <path d="M1306.48,2252.88C1306.48,2252.88 1177.6,2394.67 1196.32,2674.89C1208.94,2863.92 1296.1,3053.02 1296.1,3053.02C1296.1,3053.02 1441.34,2801.22 1433.27,2647.6C1419.06,2376.84 1306.48,2252.88 1306.48,2252.88Z" style="fill:rgb(4,42,3);"/>
                            </g>
                            <g transform="matrix(-0.179698,-0.182334,0.122313,-0.200074,408.609,205.545)">
                                <path d="M1306.48,2252.88C1306.48,2252.88 1177.6,2394.67 1196.32,2674.89C1208.94,2863.92 1296.1,3053.02 1296.1,3053.02C1296.1,3053.02 1441.34,2801.22 1433.27,2647.6C1419.06,2376.84 1306.48,2252.88 1306.48,2252.88Z" style="fill:rgb(4,42,3);"/>
                            </g>
                            <g transform="matrix(-0.145536,-0.211613,0.137417,-0.150785,414.117,140.005)">
                                <path d="M1306.48,2252.88C1306.48,2252.88 1177.6,2394.67 1196.32,2674.89C1208.94,2863.92 1296.1,3053.02 1296.1,3053.02C1296.1,3053.02 1441.34,2801.22 1433.27,2647.6C1419.06,2376.84 1306.48,2252.88 1306.48,2252.88Z" style="fill:rgb(4,42,3);"/>
                            </g>
                            <g transform="matrix(-0.0264585,-0.267802,0.165388,-0.0150829,256.16,-66.7144)">
                                <path d="M1306.48,2252.88C1306.48,2252.88 1177.6,2394.67 1196.32,2674.89C1208.94,2863.92 1296.1,3053.02 1296.1,3053.02C1296.1,3053.02 1441.34,2801.22 1433.27,2647.6C1419.06,2376.84 1306.48,2252.88 1306.48,2252.88Z" style="fill:rgb(4,42,3);"/>
                            </g>
                            <g transform="matrix(0.153156,-0.184248,0.106208,0.164028,82.1621,-600.224)">
                                <path d="M1306.48,2252.88C1306.48,2252.88 1177.6,2394.67 1196.32,2674.89C1208.94,2863.92 1296.1,3053.02 1296.1,3053.02C1296.1,3053.02 1441.34,2801.22 1433.27,2647.6C1419.06,2376.84 1306.48,2252.88 1306.48,2252.88Z" style="fill:rgb(4,42,3);"/>
                            </g>
                            <g transform="matrix(0.197187,-0.211696,0.114089,0.19791,-87.1075,-643.629)">
                                <path d="M1306.48,2252.88C1306.48,2252.88 1177.6,2394.67 1196.32,2674.89C1208.94,2863.92 1296.1,3053.02 1296.1,3053.02C1296.1,3053.02 1441.34,2801.22 1433.27,2647.6C1419.06,2376.84 1306.48,2252.88 1306.48,2252.88Z" style="fill:rgb(4,42,3);"/>
                            </g>
                            <g transform="matrix(0.151901,-0.354651,0.186369,0.152839,-303.417,-307.116)">
                                <path d="M1306.48,2252.88C1306.48,2252.88 1177.6,2394.67 1196.32,2674.89C1208.94,2863.92 1296.1,3053.02 1296.1,3053.02C1296.1,3053.02 1441.34,2801.22 1433.27,2647.6C1419.06,2376.84 1306.48,2252.88 1306.48,2252.88Z" style="fill:rgb(4,42,3);"/>
                            </g>
                            <g transform="matrix(0.374529,-0.1741,0.0774321,0.342224,-561.915,-865.58)">
                                <path d="M1306.48,2252.88C1306.48,2252.88 1177.6,2394.67 1196.32,2674.89C1208.94,2863.92 1296.1,3053.02 1296.1,3053.02C1296.1,3053.02 1441.34,2801.22 1433.27,2647.6C1419.06,2376.84 1306.48,2252.88 1306.48,2252.88Z" style="fill:rgb(4,42,3);"/>
                            </g>
                            <g transform="matrix(-0.26713,-0.54755,0.294126,-0.238164,-340.733,870.212)">
                                <path d="M1306.48,2252.88C1306.48,2252.88 1177.6,2394.67 1196.32,2674.89C1208.94,2863.92 1296.1,3053.02 1296.1,3053.02C1296.1,3053.02 1441.34,2801.22 1433.27,2647.6C1419.06,2376.84 1306.48,2252.88 1306.48,2252.88Z" style="fill:rgb(4,42,3);"/>
                            </g>
                            <g transform="matrix(-0.26713,-0.54755,0.294126,-0.238164,-491.086,792.677)">
                                <path d="M1306.48,2252.88C1306.48,2252.88 1177.6,2394.67 1196.32,2674.89C1208.94,2863.92 1296.1,3053.02 1296.1,3053.02C1296.1,3053.02 1441.34,2801.22 1433.27,2647.6C1419.06,2376.84 1306.48,2252.88 1306.48,2252.88Z" style="fill:rgb(4,42,3);"/>
                            </g>
                            <g transform="matrix(-0.0889953,-0.636477,0.341895,-0.0793453,-994.414,428.278)">
                                <path d="M1306.48,2252.88C1306.48,2252.88 1177.6,2394.67 1196.32,2674.89C1208.94,2863.92 1296.1,3053.02 1296.1,3053.02C1296.1,3053.02 1441.34,2801.22 1433.27,2647.6C1419.06,2376.84 1306.48,2252.88 1306.48,2252.88Z" style="fill:rgb(4,42,3);"/>
                            </g>
                            <g transform="matrix(0.467132,-0.236788,0.127195,0.41648,-1264.76,-1203.97)">
                                <path d="M1306.48,2252.88C1306.48,2252.88 1177.6,2394.67 1196.32,2674.89C1208.94,2863.92 1296.1,3053.02 1296.1,3053.02C1296.1,3053.02 1441.34,2801.22 1433.27,2647.6C1419.06,2376.84 1306.48,2252.88 1306.48,2252.88Z" style="fill:rgb(4,42,3);"/>
                            </g>
                            <g transform="matrix(0.486282,-0.160519,0.0862255,0.433553,-1029.42,-1225)">
                                <path d="M1306.48,2252.88C1306.48,2252.88 1177.6,2394.67 1196.32,2674.89C1208.94,2863.92 1296.1,3053.02 1296.1,3053.02C1296.1,3053.02 1441.34,2801.22 1433.27,2647.6C1419.06,2376.84 1306.48,2252.88 1306.48,2252.88Z" style="fill:rgb(4,42,3);"/>
                            </g>
                            <g transform="matrix(0.483211,-0.221199,0.106428,0.385883,-913.084,-959.438)">
                                <path d="M1306.48,2252.88C1306.48,2252.88 1177.6,2394.67 1196.32,2674.89C1208.94,2863.92 1296.1,3053.02 1296.1,3053.02C1296.1,3053.02 1441.34,2801.22 1433.27,2647.6C1419.06,2376.84 1306.48,2252.88 1306.48,2252.88Z" style="fill:rgb(4,42,3);"/>
                            </g>
                            <g transform="matrix(-0.315862,-0.347831,0.151375,-0.237559,-334.007,373.309)">
                                <path d="M1306.48,2252.88C1306.48,2252.88 1177.6,2394.67 1196.32,2674.89C1208.94,2863.92 1296.1,3053.02 1296.1,3053.02C1296.1,3053.02 1441.34,2801.22 1433.27,2647.6C1419.06,2376.84 1306.48,2252.88 1306.48,2252.88Z" style="fill:rgb(4,42,3);"/>
                            </g>
                            <g transform="matrix(-0.287744,-0.183438,0.092806,-0.210653,-95.0699,59.839)">
                                <path d="M1306.48,2252.88C1306.48,2252.88 1177.6,2394.67 1196.32,2674.89C1208.94,2863.92 1296.1,3053.02 1296.1,3053.02C1296.1,3053.02 1441.34,2801.22 1433.27,2647.6C1419.06,2376.84 1306.48,2252.88 1306.48,2252.88Z" style="fill:rgb(4,42,3);"/>
                            </g>
                            <g transform="matrix(-0.0444086,-0.268482,0.145785,-0.0142082,-424.699,-333.483)">
                                <path d="M1306.48,2252.88C1306.48,2252.88 1177.6,2394.67 1196.32,2674.89C1208.94,2863.92 1296.1,3053.02 1296.1,3053.02C1296.1,3053.02 1441.34,2801.22 1433.27,2647.6C1419.06,2376.84 1306.48,2252.88 1306.48,2252.88Z" style="fill:rgb(4,42,3);"/>
                            </g>
                            <g transform="matrix(0.259158,-0.154817,0.0972902,0.243809,-882.673,-636.914)">
                                <path d="M1306.48,2252.88C1306.48,2252.88 1177.6,2394.67 1196.32,2674.89C1208.94,2863.92 1296.1,3053.02 1296.1,3053.02C1296.1,3053.02 1441.34,2801.22 1433.27,2647.6C1419.06,2376.84 1306.48,2252.88 1306.48,2252.88Z" style="fill:rgb(4,42,3);"/>
                            </g>
                            <g transform="matrix(0.196775,-0.0179835,0.0129134,0.23452,-367.572,-771.212)">
                                <path d="M1306.48,2252.88C1306.48,2252.88 1177.6,2394.67 1196.32,2674.89C1208.94,2863.92 1296.1,3053.02 1296.1,3053.02C1296.1,3053.02 1441.34,2801.22 1433.27,2647.6C1419.06,2376.84 1306.48,2252.88 1306.48,2252.88Z" style="fill:rgb(4,42,3);"/>
                            </g>
                            <g transform="matrix(0.0231515,-0.396217,0.186025,0.0180411,-562.091,148.297)">
                                <path d="M1306.48,2252.88C1306.48,2252.88 1177.6,2394.67 1196.32,2674.89C1208.94,2863.92 1296.1,3053.02 1296.1,3053.02C1296.1,3053.02 1441.34,2801.22 1433.27,2647.6C1419.06,2376.84 1306.48,2252.88 1306.48,2252.88Z" style="fill:rgb(4,42,3);"/>
                            </g>
                            <g transform="matrix(0.138227,-0.307049,0.17014,0.127126,-508.541,11.6965)">
                                <path d="M1306.48,2252.88C1306.48,2252.88 1177.6,2394.67 1196.32,2674.89C1208.94,2863.92 1296.1,3053.02 1296.1,3053.02C1296.1,3053.02 1441.34,2801.22 1433.27,2647.6C1419.06,2376.84 1306.48,2252.88 1306.48,2252.88Z" style="fill:rgb(4,42,3);"/>
                            </g>
                            <g transform="matrix(0.202604,0.181833,-0.0951264,0.175922,13.2104,-708.272)">
                                <path d="M1306.48,2252.88C1306.48,2252.88 1177.6,2394.67 1196.32,2674.89C1208.94,2863.92 1296.1,3053.02 1296.1,3053.02C1296.1,3053.02 1441.34,2801.22 1433.27,2647.6C1419.06,2376.84 1306.48,2252.88 1306.48,2252.88Z" style="fill:rgb(4,42,3);"/>
                            </g>
                            <g transform="matrix(0.116869,0.175877,-0.0993923,0.111743,141.869,-450.103)">
                                <path d="M1306.48,2252.88C1306.48,2252.88 1177.6,2394.67 1196.32,2674.89C1208.94,2863.92 1296.1,3053.02 1296.1,3053.02C1296.1,3053.02 1441.34,2801.22 1433.27,2647.6C1419.06,2376.84 1306.48,2252.88 1306.48,2252.88Z" style="fill:rgb(4,42,3);"/>
                            </g>
                            <g transform="matrix(0.0553183,0.154245,-0.0915704,0.0631587,202.718,-228.785)">
                                <path d="M1306.48,2252.88C1306.48,2252.88 1177.6,2394.67 1196.32,2674.89C1208.94,2863.92 1296.1,3053.02 1296.1,3053.02C1296.1,3053.02 1441.34,2801.22 1433.27,2647.6C1419.06,2376.84 1306.48,2252.88 1306.48,2252.88Z" style="fill:rgb(4,42,3);"/>
                            </g>
                            <g transform="matrix(0.0878758,0.0577942,-0.0266547,0.0981285,6.77764,-135.326)">
                                <path d="M1306.48,2252.88C1306.48,2252.88 1177.6,2394.67 1196.32,2674.89C1208.94,2863.92 1296.1,3053.02 1296.1,3053.02C1296.1,3053.02 1441.34,2801.22 1433.27,2647.6C1419.06,2376.84 1306.48,2252.88 1306.48,2252.88Z" style="fill:rgb(4,42,3);"/>
                            </g>
                            <g transform="matrix(0.108587,-0.0344377,0.0270736,0.0949115,-134.157,-44.6886)">
                                <path d="M1306.48,2252.88C1306.48,2252.88 1177.6,2394.67 1196.32,2674.89C1208.94,2863.92 1296.1,3053.02 1296.1,3053.02C1296.1,3053.02 1441.34,2801.22 1433.27,2647.6C1419.06,2376.84 1306.48,2252.88 1306.48,2252.88Z" style="fill:rgb(4,42,3);"/>
                            </g>
                            <g transform="matrix(0.0973321,-0.18274,0.0885537,0.0782842,-251.224,84.5308)">
                                <path d="M1306.48,2252.88C1306.48,2252.88 1177.6,2394.67 1196.32,2674.89C1208.94,2863.92 1296.1,3053.02 1296.1,3053.02C1296.1,3053.02 1441.34,2801.22 1433.27,2647.6C1419.06,2376.84 1306.48,2252.88 1306.48,2252.88Z" style="fill:rgb(4,42,3);"/>
                            </g>
                            <g transform="matrix(0.0917807,-0.200131,0.102616,0.0629731,-279.453,87.525)">
                                <path d="M1306.48,2252.88C1306.48,2252.88 1177.6,2394.67 1196.32,2674.89C1208.94,2863.92 1296.1,3053.02 1296.1,3053.02C1296.1,3053.02 1441.34,2801.22 1433.27,2647.6C1419.06,2376.84 1306.48,2252.88 1306.48,2252.88Z" style="fill:rgb(4,42,3);"/>
                            </g>
                            <g transform="matrix(0.262756,0.00909851,0.0112155,0.231879,-122.191,-763.185)">
                                <path d="M1306.48,2252.88C1306.48,2252.88 1177.6,2394.67 1196.32,2674.89C1208.94,2863.92 1296.1,3053.02 1296.1,3053.02C1296.1,3053.02 1441.34,2801.22 1433.27,2647.6C1419.06,2376.84 1306.48,2252.88 1306.48,2252.88Z" style="fill:rgb(4,42,3);"/>
                            </g>
                            <g transform="matrix(0.244564,0.180708,-0.0822841,0.184831,199.026,-765.736)">
                                <path d="M1306.48,2252.88C1306.48,2252.88 1177.6,2394.67 1196.32,2674.89C1208.94,2863.92 1296.1,3053.02 1296.1,3053.02C1296.1,3053.02 1441.34,2801.22 1433.27,2647.6C1419.06,2376.84 1306.48,2252.88 1306.48,2252.88Z" style="fill:rgb(4,42,3);"/>
                            </g>
                            <g transform="matrix(0.176284,0.283459,-0.129071,0.133228,427.65,-658.012)">
                                <path d="M1306.48,2252.88C1306.48,2252.88 1177.6,2394.67 1196.32,2674.89C1208.94,2863.92 1296.1,3053.02 1296.1,3053.02C1296.1,3053.02 1441.34,2801.22 1433.27,2647.6C1419.06,2376.84 1306.48,2252.88 1306.48,2252.88Z" style="fill:rgb(4,42,3);"/>
                            </g>
                            <g transform="matrix(0.0706688,0.293391,-0.129348,0.0517114,520.667,-348.757)">
                                <path d="M1306.48,2252.88C1306.48,2252.88 1177.6,2394.67 1196.32,2674.89C1208.94,2863.92 1296.1,3053.02 1296.1,3053.02C1296.1,3053.02 1441.34,2801.22 1433.27,2647.6C1419.06,2376.84 1306.48,2252.88 1306.48,2252.88Z" style="fill:rgb(4,42,3);"/>
                            </g>
                            <g transform="matrix(0.161796,0.153252,-0.0679439,0.113729,225.179,-222.695)">
                                <path d="M1306.48,2252.88C1306.48,2252.88 1177.6,2394.67 1196.32,2674.89C1208.94,2863.92 1296.1,3053.02 1296.1,3053.02C1296.1,3053.02 1441.34,2801.22 1433.27,2647.6C1419.06,2376.84 1306.48,2252.88 1306.48,2252.88Z" style="fill:rgb(4,42,3);"/>
                            </g>
                            <g transform="matrix(0.169464,0.00368227,-0.0021351,0.117708,73.0391,42.4221)">
                                <path d="M1306.48,2252.88C1306.48,2252.88 1177.6,2394.67 1196.32,2674.89C1208.94,2863.92 1296.1,3053.02 1296.1,3053.02C1296.1,3053.02 1441.34,2801.22 1433.27,2647.6C1419.06,2376.84 1306.48,2252.88 1306.48,2252.88Z" style="fill:rgb(4,42,3);"/>
                            </g>
                            <g transform="matrix(0.113239,-0.227187,0.101567,0.079428,-98.1908,391.175)">
                                <path d="M1306.48,2252.88C1306.48,2252.88 1177.6,2394.67 1196.32,2674.89C1208.94,2863.92 1296.1,3053.02 1296.1,3053.02C1296.1,3053.02 1441.34,2801.22 1433.27,2647.6C1419.06,2376.84 1306.48,2252.88 1306.48,2252.88Z" style="fill:rgb(4,42,3);"/>
                            </g>
                            <g transform="matrix(0.199729,-0.0974853,0.0409688,0.129351,-46.1399,15.4214)">
                                <path d="M1306.48,2252.88C1306.48,2252.88 1177.6,2394.67 1196.32,2674.89C1208.94,2863.92 1296.1,3053.02 1296.1,3053.02C1296.1,3053.02 1441.34,2801.22 1433.27,2647.6C1419.06,2376.84 1306.48,2252.88 1306.48,2252.88Z" style="fill:rgb(4,42,3);"/>
                            </g>
                            <g transform="matrix(0.199729,-0.0974853,0.0409688,0.129351,-5.71651,-55.3471)">
                                <path d="M1306.48,2252.88C1306.48,2252.88 1177.6,2394.67 1196.32,2674.89C1208.94,2863.92 1296.1,3053.02 1296.1,3053.02C1296.1,3053.02 1441.34,2801.22 1433.27,2647.6C1419.06,2376.84 1306.48,2252.88 1306.48,2252.88Z" style="fill:rgb(4,42,3);"/>
                            </g>
                            <g transform="matrix(0.20561,-0.236703,0.103907,0.142395,-128.738,-0.343456)">
                                <path d="M1306.48,2252.88C1306.48,2252.88 1177.6,2394.67 1196.32,2674.89C1208.94,2863.92 1296.1,3053.02 1296.1,3053.02C1296.1,3053.02 1441.34,2801.22 1433.27,2647.6C1419.06,2376.84 1306.48,2252.88 1306.48,2252.88Z" style="fill:rgb(4,42,3);"/>
                            </g>
                            <g transform="matrix(0.094193,-0.447249,0.20106,0.0782914,-245.144,283.682)">
                                <path d="M1306.48,2252.88C1306.48,2252.88 1177.6,2394.67 1196.32,2674.89C1208.94,2863.92 1296.1,3053.02 1296.1,3053.02C1296.1,3053.02 1441.34,2801.22 1433.27,2647.6C1419.06,2376.84 1306.48,2252.88 1306.48,2252.88Z" style="fill:rgb(4,42,3);"/>
                            </g>
                            <g transform="matrix(-0.155285,-0.598397,0.273527,-0.077589,-118.591,758.053)">
                                <path d="M1306.48,2252.88C1306.48,2252.88 1177.6,2394.67 1196.32,2674.89C1208.94,2863.92 1296.1,3053.02 1296.1,3053.02C1296.1,3053.02 1441.34,2801.22 1433.27,2647.6C1419.06,2376.84 1306.48,2252.88 1306.48,2252.88Z" style="fill:rgb(4,42,3);"/>
                            </g>
                            <g transform="matrix(0.0268678,-0.403685,0.178236,0.0485494,19.4842,389.843)">
                                <path d="M1306.48,2252.88C1306.48,2252.88 1177.6,2394.67 1196.32,2674.89C1208.94,2863.92 1296.1,3053.02 1296.1,3053.02C1296.1,3053.02 1441.34,2801.22 1433.27,2647.6C1419.06,2376.84 1306.48,2252.88 1306.48,2252.88Z" style="fill:rgb(4,42,3);"/>
                            </g>
                            <g transform="matrix(0.40395,0.0604806,-0.047955,0.252025,41.73,-660.725)">
                                <path d="M1306.48,2252.88C1306.48,2252.88 1177.6,2394.67 1196.32,2674.89C1208.94,2863.92 1296.1,3053.02 1296.1,3053.02C1296.1,3053.02 1441.34,2801.22 1433.27,2647.6C1419.06,2376.84 1306.48,2252.88 1306.48,2252.88Z" style="fill:rgb(4,42,3);"/>
                            </g>
                            <g transform="matrix(0.293587,0.127639,-0.0560784,0.214089,253.672,-561.297)">
                                <path d="M1306.48,2252.88C1306.48,2252.88 1177.6,2394.67 1196.32,2674.89C1208.94,2863.92 1296.1,3053.02 1296.1,3053.02C1296.1,3053.02 1441.34,2801.22 1433.27,2647.6C1419.06,2376.84 1306.48,2252.88 1306.48,2252.88Z" style="fill:rgb(4,42,3);"/>
                            </g>
                            <g transform="matrix(0.23149,0.0954142,-0.0228428,0.193331,288.185,-367.116)">
                                <path d="M1314.2,2175.7C1314.2,2175.7 1183.32,2445.15 1202.04,2725.36C1214.66,2914.4 1264.33,3131.87 1264.33,3131.87C1264.33,3131.87 1425.56,2929.6 1433.27,2647.6C1440.85,2370.67 1314.2,2175.7 1314.2,2175.7Z" style="fill:rgb(4,42,3);"/>
                            </g>
                            <g transform="matrix(0.185666,-0.0527467,0.0276608,0.161602,259.187,-32.8329)">
                                <path d="M1306.48,2252.88C1306.48,2252.88 1177.6,2394.67 1196.32,2674.89C1208.94,2863.92 1296.1,3053.02 1296.1,3053.02C1296.1,3053.02 1441.34,2801.22 1433.27,2647.6C1419.06,2376.84 1306.48,2252.88 1306.48,2252.88Z" style="fill:rgb(4,42,3);"/>
                            </g>
                            <g transform="matrix(0.0820269,-0.220974,0.115881,0.0713954,186.739,349.041)">
                                <path d="M1306.48,2252.88C1306.48,2252.88 1177.6,2394.67 1196.32,2674.89C1208.94,2863.92 1296.1,3053.02 1296.1,3053.02C1296.1,3053.02 1441.34,2801.22 1433.27,2647.6C1419.06,2376.84 1306.48,2252.88 1306.48,2252.88Z" style="fill:rgb(4,42,3);"/>
                            </g>
                            <g transform="matrix(0.0758908,-0.364011,0.147503,0.0510408,96.1122,498.395)">
                                <path d="M1306.48,2252.88C1306.48,2252.88 1177.6,2394.67 1196.32,2674.89C1208.94,2863.92 1296.1,3053.02 1296.1,3053.02C1296.1,3053.02 1441.34,2801.22 1433.27,2647.6C1419.06,2376.84 1306.48,2252.88 1306.48,2252.88Z" style="fill:rgb(4,42,3);"/>
                            </g>
                            <g transform="matrix(0.0364212,-0.389705,0.158904,0.0246488,98.4886,518.975)">
                                <path d="M1306.48,2252.88C1306.48,2252.88 1177.6,2394.67 1196.32,2674.89C1208.94,2863.92 1296.1,3053.02 1296.1,3053.02C1296.1,3053.02 1441.34,2801.22 1433.27,2647.6C1419.06,2376.84 1306.48,2252.88 1306.48,2252.88Z" style="fill:rgb(4,42,3);"/>
                            </g>
                            <g transform="matrix(0.103689,-0.0833521,0.0417802,0.0862643,-153.984,-19.5632)">
                                <path d="M1306.48,2252.88C1306.48,2252.88 1177.6,2394.67 1196.32,2674.89C1208.94,2863.92 1296.1,3053.02 1296.1,3053.02C1296.1,3053.02 1441.34,2801.22 1433.27,2647.6C1419.06,2376.84 1306.48,2252.88 1306.48,2252.88Z" style="fill:rgb(4,42,3);"/>
                            </g>
                            <g transform="matrix(0.178819,-0.435867,0.223092,0.162288,-543.935,-143.922)">
                                <path d="M1306.48,2252.88C1306.48,2252.88 1177.6,2394.67 1196.32,2674.89C1208.94,2863.92 1296.1,3053.02 1296.1,3053.02C1296.1,3053.02 1441.34,2801.22 1433.27,2647.6C1419.06,2376.84 1306.48,2252.88 1306.48,2252.88Z" style="fill:rgb(4,42,3);"/>
                            </g>
                        </g>
                    </g>
                </g>
                <g transform="matrix(1.00313,0,0,1.00671,-8.70844,4.40525)">
                    <g transform="matrix(1.28467,0,0,1.02932,-337.681,-1827.23)">
                        <path d="M3894.65,3720.7L-70.447,3725.59L-255.697,4481.27L4099.92,4484.42L3894.65,3720.7Z" style="fill:rgb(103,127,139);"/>
                    </g>
                    <g transform="matrix(1.42889,0,0,1.76416,-666.166,-852.553)">
                        <path d="M0,0L3919.72,0L3917.28,2064.25L3727.73,2064.25L3730.02,1664.28L180.756,1664.28L178.469,2064.25L-2.443,2064.25L0,0ZM180.912,55.946L180.912,1576.14L3730.17,1576.14L3730.17,55.946L180.912,55.946Z" style="fill:rgb(149,185,183);"/>
                    </g>
                </g>
            </g>
        </g>
    </g>
</svg>
