<?xml version="1.0" encoding="UTF-8" standalone="no"?>
<!DOCTYPE svg PUBLIC "-//W3C//DTD SVG 1.1//EN" "http://www.w3.org/Graphics/SVG/1.1/DTD/svg11.dtd">
<svg width="100%" height="100%" viewBox="0 0 475 375" version="1.1" xmlns="http://www.w3.org/2000/svg" xmlns:xlink="http://www.w3.org/1999/xlink" xml:space="preserve" xmlns:serif="http://www.serif.com/" style="fill-rule:evenodd;clip-rule:evenodd;stroke-linejoin:round;stroke-miterlimit:2;">
    <g transform="matrix(1,0,0,1,-1967.56,-1622.45)">
        <g transform="matrix(0.699845,0,0,0.543225,466.213,463.128)">
            <g id="Tripod" transform="matrix(1,0,0,1,0.968883,-11.8136)">
                <g transform="matrix(1.42889,0,0,1.84086,-666.166,-852.553)">
                    <path d="M2381.53,1803.37L2324.84,1803.37L2324.84,1864.61L2381.53,1864.61L2381.53,1803.37ZM2316.64,1683.64L2095.81,1683.64L2095.81,1725.08L2316.64,1725.08L2316.64,1683.64Z" style="fill:rgb(78,78,78);"/>
                </g>
                <g transform="matrix(1.42889,0,0,1.84086,-666.166,-852.553)">
                    <path d="M2358.31,1773.86L2333.5,1919.13C2325.16,1967.91 2282.89,2003.58 2233.4,2003.58L2173.86,2003.58C2122.83,2003.58 2079.73,1965.71 2073.16,1915.1L2054.83,1773.86L2022.44,1773.86L2022.44,1720L2386.95,1720L2386.95,1759.35L2410.83,1759.35C2427.7,1759.35 2441.37,1773.03 2441.37,1789.89L2441.37,1875.52C2441.37,1892.39 2427.7,1906.06 2410.83,1906.06L2380.35,1906.06L2380.35,1773.86L2358.31,1773.86ZM2424.13,1628.87L1966.88,1628.87L1966.88,1709.44L2424.13,1709.44L2424.13,1628.87Z" style="fill:rgb(46,46,46);"/>
                </g>
            </g>
        </g>
    </g>
</svg>
